<svg xmlns="http://www.w3.org/2000/svg" viewBox="0 0 1927.56 1077.17"><defs><style>.cls-1{fill:#fff200;}</style></defs><title>Mesa de trabajo 1 copia</title><g id="Capa_15" data-name="Capa 15"><path class="cls-1" d="M272.4,242.19q2.19,39.87,3.54,79.78t1.85,79.84q.29,22.43.31,44.86a2.55,2.55,0,0,0,2.5,2.5q37.93,1.06,75.89.63t76.12-2.38q18.94-1,37.88-2.31c12.28-.88,24.69-2.49,37-1.91a96.37,96.37,0,0,1,15.76,2.44c4.21.89,8.66,1.73,13,1.27s8.11-2.15,10.43-5.86a16.15,16.15,0,0,0,2.07-7.72c.17-3.07.14-6.16.19-9.22l1.36-76.58,1.35-76.3c.11-6.24.24-12.49.33-18.73.06-4.85-.14-9.85-2.13-14.35-4.74-10.73-17.84-9.94-27.64-10.19q-37.91-1-75.81-.55t-75.78,2.3q-37.86,1.86-75.63,5.15-9.24.79-18.47,1.69a2.57,2.57,0,0,0-2.5,2.5,2.52,2.52,0,0,0,2.5,2.5q37.19-3.57,74.5-5.78t74.65-3q37.23-.81,74.45-.25,9.27.13,18.54.36l9.54.25a53.84,53.84,0,0,1,7.07.5c4.35.73,8.33,2.56,10.16,6.82s1.6,9.22,1.52,13.77l-1.33,75.2-1.33,75.21L544,423.28c-.06,3-.07,6.07-.17,9.1-.08,2.32-.31,4.8-1.8,6.69-2,2.63-5.66,3-8.87,2.94a63.59,63.59,0,0,1-12.24-2c-11.79-2.67-23.79-1.91-35.73-1q-18.5,1.44-37,2.55-37.33,2.22-74.74,3t-74.8,0q-9-.16-18-.42l2.5,2.5q0-39.94-.91-79.86T279.59,287q-1-22.41-2.19-44.8c-.17-3.2-5.18-3.22-5,0Z"/><path class="cls-1" d="M666.59,441.55a57,57,0,0,1-14.26-22.46c-.4-1.16-1.76-2.27-3.07-1.74-3.51,1.42-7.29,3-11.16,2.73-2.46-.2-5.24-1.67-6.18-4.07a3.93,3.93,0,0,1,0-3c.13-.36-.06,0,.21-.4.06-.1.36-.56.27-.44s.27-.29.35-.37.61-.53.32-.31a10.69,10.69,0,0,1,5.86-1.74,25.62,25.62,0,0,1,8.41,1c1.7.47,3.77-1.24,3.07-3.08-3.28-8.56-6.82-18.15-3-27.16,3-7.23,9.57-12.48,16-16.52,7.06-4.41,14.76-7.69,21.67-12.36s12.28-10.41,15.69-18c3-6.71,4.75-14,8.28-20.48a23.27,23.27,0,0,1,6.12-7.53,23.52,23.52,0,0,1,11.61-4.2,131,131,0,0,1,14-.49l15.94-.14,32.12-.29c5.28,0,10.57-.13,15.85-.14,1.27,0,3.25-.11,4.2.88a4.93,4.93,0,0,1,.77,2.35,11.63,11.63,0,0,0,1.08,3.15c1.84,3.43,5.64,5.07,9.16,6.19s7,2,10.19,3.85c6.59,3.8,11.5,9.94,14.81,16.72,3.91,8,5.24,16.93,5.23,25.77,0,10.2-1.63,20.37-3.43,30.38-1.14,6.39-2.91,13.76-7.51,18.52a11,11,0,0,1-7.65,3.58c-3.48.1-6.84-1.28-10-2.68-6.87-3.08-14.72-6.91-21.94-2.45-7,4.36-9.13,13.28-9.29,21-.1,4.93.43,10-.42,14.88a21.42,21.42,0,0,1-4.52,10.14,23.17,23.17,0,0,1-19.13,8.55c-7.13-.5-13.61-5.17-17.19-11.21a21.34,21.34,0,0,1-3-9.88,2.56,2.56,0,0,0-2.5-2.5l-34.45-3a61.44,61.44,0,0,0-8.57-.44,20.16,20.16,0,0,0-7.66,2c-2.32,1.1-4.44,2.57-6.69,3.79a32,32,0,0,1-6.51,2.64,33.57,33.57,0,0,1-16.42.54c-3.14-.69-4.48,4.13-1.33,4.82a39.47,39.47,0,0,0,15.54.29,42.44,42.44,0,0,0,14.2-5.69,23.08,23.08,0,0,1,6.76-3.12,26.35,26.35,0,0,1,8-.08l17.46,1.5,19.69,1.69-2.5-2.5a28,28,0,0,0,11.5,21,25.7,25.7,0,0,0,23,4,28.37,28.37,0,0,0,17.65-15.92c1.94-4.69,2.18-9.85,2.14-14.87,0-4.55-.34-9.22.76-13.68.85-3.39,2.4-6.89,5.22-9.1s6.06-2.28,9.22-1.46c7.45,1.92,14.09,7.55,22.16,6.64,7.9-.9,12.77-7.16,15.6-14.09a56.54,56.54,0,0,0,3-10.79c1-5,1.72-10.12,2.41-15.19,1.44-10.72,2.07-21.62,0-32.29a52.35,52.35,0,0,0-10.38-22.51,36.89,36.89,0,0,0-20.17-13.09c-2.9-.85-7-1.8-8.27-4.76a18.51,18.51,0,0,1-.65-2.64,7.68,7.68,0,0,0-1.64-3.35c-1.51-1.74-3.8-2.32-6-2.52-2.42-.22-4.91,0-7.34,0l-8.21.07-16.68.15-33.12.3c-9.31.08-19.88-.59-28,4.89-6.53,4.42-9.84,11.59-12.5,18.74s-4.75,14.58-9.77,20.36c-5.69,6.56-13.56,10.63-21.11,14.65s-15.21,8.3-21.06,14.7a32.37,32.37,0,0,0-6.62,10.61,28.91,28.91,0,0,0-1.07,14.59A73.1,73.1,0,0,0,645.6,409l3.08-3.07c-5.75-1.59-13.55-2.26-18.57,1.62a8.91,8.91,0,0,0-3.27,8.82c.77,4,4.32,6.94,8,8.14,5.27,1.72,10.87-.36,15.74-2.33l-3.08-1.75a62.61,62.61,0,0,0,15.54,24.67c2.31,2.25,5.85-1.29,3.54-3.54Z"/><path class="cls-1" d="M1021.85,422.73c-6.81,7.88-15.54,14.95-26,17a22.92,22.92,0,0,1-13.62-1.28,23.52,23.52,0,0,1-10.28-8.7,15.5,15.5,0,0,1-2-13.45,2.52,2.52,0,0,0-1.75-3.08c-8-1.45-13.35-10.46-10.65-18.06,1.52-4.26,4.9-7.69,7.48-11.32a26.69,26.69,0,0,0,3.46-6.36,19.76,19.76,0,0,0,.89-7.83c-.14-2.47-.58-5.27.51-7.6a7.17,7.17,0,0,1,3.35-3.33c3.23-1.77,7.38-2.39,11-3.56a25.08,25.08,0,0,0,5.92-2.62,24.1,24.1,0,0,0,5.17-4.76c2.81-3.31,5.37-6.78,10-7.15,4.45-.35,9.2.76,13.46-.95a9.87,9.87,0,0,0,5.43-5.1,21.3,21.3,0,0,0,1.44-7.7,29.68,29.68,0,0,1,3.52-13.17,36.92,36.92,0,0,1,9-10.57c8.33-6.82,19.12-9.76,29.67-10.79,12.17-1.2,24.57-.55,36.75.05q19.53,1,39,3.28c5.14.61,10.6,1,15.4,3.12,5.09,2.21,7.84,6.51,10,11.4A171.42,171.42,0,0,1,1183.89,379a173.39,173.39,0,0,1-.74,17.65c-.44,4.77-.8,9.93-2.75,14.38a11.62,11.62,0,0,1-3.51,4.76,9.73,9.73,0,0,1-4.59,1.73c-3.81.39-7.23-.47-11-1.37-7-1.69-16-4.27-21.16,2.63-3.37,4.51-2.19,10.24-2.14,15.45a23,23,0,0,1-3.92,12.87,22.38,22.38,0,0,1-24,9.38,22.87,22.87,0,0,1-11.72-6.94c-3.28-3.63-5.64-8-8.86-11.69a22.15,22.15,0,0,0-12.6-7.37c-4.91-.95-9.91-.69-14.88-.71-4.55,0-9.37-.23-13.36-2.65-4.46-2.69-7.09-7.63-12.11-9.54-4.12-1.57-9.44-.89-11.79,3.22-1.6,2.8,2.72,5.32,4.32,2.53.78-1.37,2.32-1.7,4-1.51a9.85,9.85,0,0,1,5.4,2.9c2.09,1.91,4,4,6.23,5.75a19.91,19.91,0,0,0,6.79,3.21c4.9,1.31,10,1.09,15.07,1.07,4.63,0,9.65,0,13.87,2.12s7.07,6.36,9.79,10.24c3,4.29,6.2,8.32,10.77,11,8.79,5.23,20.46,5.43,29.11-.21a28.56,28.56,0,0,0,10-11.32,29.92,29.92,0,0,0,2.77-15.26c-.15-2.58-.42-5.24.33-7.75a6.11,6.11,0,0,1,2.93-3.65,5,5,0,0,1,1.7-.6l.59-.11c-.47.08.06,0,.17,0,.46,0,.92-.05,1.38-.05a22,22,0,0,1,5,.64c7.6,1.59,16.86,5.24,24.07.48,4.18-2.77,6.34-7.48,7.44-12.22a102.53,102.53,0,0,0,2-16.85,178.77,178.77,0,0,0-10.44-71.93c-2-5.49-4.05-11.27-7.12-16.27a22.55,22.55,0,0,0-13.17-9.94c-5.67-1.72-11.77-2.14-17.63-2.8q-9.84-1.11-19.71-1.88c-13-1-26.12-1.67-39.19-1.64-12.12,0-24.5,1.1-35.7,6.08-9,4-17.29,11.1-21.59,20.11a32.94,32.94,0,0,0-2.53,7.2,52.12,52.12,0,0,0-.83,7.69c-.13,2.09-.33,4.52-1.9,6.09a7.15,7.15,0,0,1-5,1.69c-4.83.21-9.73-.7-14.27,1.49s-6.82,6.75-10.36,10c-6.08,5.53-16.34,3.59-22,10.09a12.32,12.32,0,0,0-2.91,7.06c-.29,2.9.31,5.81.11,8.71-.3,4.55-3.63,8.37-6.27,11.83-3,4-5.81,8.13-6.25,13.25a19,19,0,0,0,3.86,12.8A18.25,18.25,0,0,0,966.87,418l-1.74-3.07c-3.54,10.54,3.2,21.34,12.21,26.58,10.34,6,22.74,3.82,32.63-2a63.14,63.14,0,0,0,15.42-13.22,2.56,2.56,0,0,0,0-3.53,2.52,2.52,0,0,0-3.54,0Z"/><path class="cls-1" d="M1275.6,366.42c.32-.53.05,0-.09,0s-.64.28-.37.12c.09-.05-.26-.18.09,0-.45-.28.25.16.27.18-.26-.21.6.6.45.41a3.44,3.44,0,0,1,.6,1.15c.2.79,0-.18,0,.28,0,.12-.11.61,0,.27a3.86,3.86,0,0,1-.69,1.19,14.09,14.09,0,0,1-2.83,2.45c-2.38,1.72-4.7,3.47-6.11,6.13a18,18,0,0,0-1.89,8.79c.14,6.65,2.37,13.25,4,19.64s3,13,5,19.28c3.13,10,8.89,21.13,20.32,23,13.89,2.22,24.46-8.76,34-17,5.41-4.68,11.2-8.39,18.36-9.63,7.53-1.31,15.37-.18,22.86.9l-1.84-2.41c-1.38,10.65,3.16,21.27,10.46,28.9a41.72,41.72,0,0,0,29.94,12.72,38.06,38.06,0,0,0,30.55-14.46,34.65,34.65,0,0,0,6.73-14.81,36.77,36.77,0,0,0,.47-8.7c-.17-2.85-.59-6,.66-8.72a12.48,12.48,0,0,1,4.93-5c2.54-1.6,5.29-2.88,8-4.25l18.8-9.62a40.58,40.58,0,0,1,4.17-2.09c1.08-.39,1.19-.1,1.56.84.9,2.3,1.38,4.58,2.85,6.63a20.18,20.18,0,0,0,12,7.79c10.89,2.4,20.93-4.11,26.42-13.23a37.91,37.91,0,0,0,3.45-7.69c1-2.95,1.64-6.06,3-8.87s3.32-5.11,5-7.69a22.25,22.25,0,0,0,3.17-8c2-11.58-4.25-22.48-7.22-33.32a79.6,79.6,0,0,1-1.66-8.52,18.46,18.46,0,0,0-2.89-8.08c-2.75-3.8-6.93-5.39-11.47-5.83s-8.91.2-13.35.31c-4,.1-8.41-.06-11.74-2.55-3.49-2.59-4.74-7.09-5.76-11.09-1.19-4.69-2.13-9.57-4.63-13.78-6-10-18.93-12.33-29.28-15.1-13.25-3.54-26.71-6.74-40.45-7.56-21.85-1.3-46.28,4.62-60.53,22.46-7,8.78-10,20.16-18.48,27.87-6.2,5.66-14,9.3-21.76,12.43-15.68,6.34-34.41,11.4-43.88,26.69-2.58,4.17-4.55,10.05.09,13.56a2.52,2.52,0,0,0,3.42-.9,2.56,2.56,0,0,0-.9-3.42c-1.1-.83,0-3.65.51-4.61a29.17,29.17,0,0,1,3.16-4.93,38,38,0,0,1,8.39-7.69c6.86-4.68,14.67-7.71,22.37-10.69,8-3.11,16.24-6.13,23.65-10.62a52.06,52.06,0,0,0,9.87-7.61,53.31,53.31,0,0,0,9.08-13c2.64-5,5.12-10.11,8.77-14.45a49.27,49.27,0,0,1,11.12-9.75,67.62,67.62,0,0,1,28.68-9.95c12.6-1.47,25.35.06,37.69,2.65,6.51,1.37,12.95,3,19.37,4.77,5.26,1.42,10.76,2.62,15.73,4.93,4.36,2,8,4.89,10,9.32,1.92,4.13,2.53,8.79,3.8,13.13s3.33,8.64,7.12,11.48c3.57,2.66,8.15,3.38,12.5,3.44s8.77-.53,13.16-.44c3.53.08,7.14.64,9.39,3.49,1.56,2,2,4.63,2.43,7.09a75.56,75.56,0,0,0,1.62,8.3c1.49,5.44,3.65,10.67,5.32,16.05,1.5,4.84,2.82,10.13,1.78,15.21-1.16,5.73-5.62,9.58-7.9,14.79s-3.11,10.8-6,15.7a24.16,24.16,0,0,1-10.78,9.91c-7.52,3.27-18.22.39-20.82-8.05-.77-2.48-1.55-5.19-4.23-6.21-3.13-1.19-6.25,1-8.95,2.38l-17.85,9.13c-4.91,2.52-10.76,4.78-14.36,9.16a14.28,14.28,0,0,0-3.18,8.07c-.27,3,.24,6,.2,9-.15,10.11-6.2,19.75-14.77,24.94-9.54,5.77-21.77,6.22-32,2.11a35.73,35.73,0,0,1-19.87-20.21,28.84,28.84,0,0,1-1.58-13.71,2.47,2.47,0,0,0-1.83-2.41c-7.06-1-14.22-2-21.36-1.44a37.64,37.64,0,0,0-19.1,7c-5.3,3.81-9.83,8.51-14.88,12.62-4.77,3.89-10.77,7.46-17.09,7.69-11.67.42-17.07-11.13-19.93-20.66-2-6.75-3.54-13.68-5.26-20.51-.86-3.44-1.81-6.86-2.52-10.33a24.94,24.94,0,0,1-.54-8.56,10.27,10.27,0,0,1,4.29-6.93c2.6-2,5.75-3.86,6.82-7.14,1.76-5.46-6.31-12.82-10-6.59-1.65,2.77,2.67,5.29,4.32,2.52Z"/><path class="cls-1" d="M336,631.39c-12.33,4.45-29.08,3.55-37.25-8.14a24.06,24.06,0,0,1-4.33-17,18.11,18.11,0,0,1,3.33-8.15c2.31-3.08,5.06-5.45,6.42-9.16,1.26-3.4,1.44-7.13,3.52-10.2a18.48,18.48,0,0,1,7.22-5.79c6.68-3.35,14.5-4.77,21.74-6.41a321.59,321.59,0,0,1,52.23-7.4c8.24-.49,16.51-.83,24.65-2.26a70.89,70.89,0,0,0,22.71-8.24c6.61-3.72,12.8-8.14,19.37-11.94a68.75,68.75,0,0,1,22.77-8.45c8.2-1.43,16.58-1.55,24.88-1.59,7.93,0,15.86,0,23.79.19,15.66.45,31.41,1.78,46.59,5.87A108.75,108.75,0,0,1,595.27,541c6.7,3.46,12.85,7.82,19.05,12.1s12.25,8.32,19.06,11.24c7.44,3.2,15.14,4.26,23.19,4.62,7.72.35,15.6.4,22.87,3.36a23.07,23.07,0,0,1,7.92,5.17c2.25,2.32,4.83,6.12,3.47,9.48-1.26,3.12-4.27,5.15-5.47,8.38s-.43,6.77.89,9.91,3.29,6.12,3.9,9.5a11.64,11.64,0,0,1-2.2,8.62c-9.63,14-29.86,6.29-43.58,6.14-7.54-.09-14.85,1.54-20.79,6.39-3,2.45-5.47,5.45-8.23,8.15a36.26,36.26,0,0,1-7.77,5.78,40.13,40.13,0,0,1-37.14.6c-6.55-3.42-11.25-9.34-17.65-13-6.88-3.91-14.87-5.12-22.66-5.61-17.67-1.12-35.54-.83-53.23-.32q-26.88.78-53.67,3.42c-7.9.77-16,1.73-22.9,5.93-6,3.62-10.82,8.87-17.47,11.3-10.82,3.94-23.25,2-32.76-4.34a32.25,32.25,0,0,1-10.89-12.18c-1.47-2.87-5.79-.34-4.32,2.52,5.62,11,16.89,18.34,28.91,20.38a40.79,40.79,0,0,0,18.25-.86c7-2,12.19-6.48,18-10.65,7-5,14.81-6.28,23.16-7.1q14.07-1.39,28.18-2.26,28-1.73,56.12-1.45c8.87.09,17.85,0,26.68.94A48.45,48.45,0,0,1,546,639.75a34.56,34.56,0,0,1,10.3,6.38c5.7,4.83,11.2,9.12,18.42,11.43a45.67,45.67,0,0,0,20.35,1.55,43,43,0,0,0,18.58-7.24c6.22-4.4,10.4-11.5,17.28-14.92s15.23-2.68,22.62-1.76c8.59,1.06,17.67,2.65,26.13-.07,6.59-2.12,12.59-7.16,14.81-13.85a15.74,15.74,0,0,0-.19-10.19c-1.21-3.41-3.32-6.49-4.27-10-1-3.73,1.08-6,3.23-8.8,2.44-3.14,3.55-6.65,2.4-10.58-2-6.87-8.31-11.57-14.65-14.15-7.41-3-15.45-3.27-23.34-3.6-8.54-.36-16.62-1.42-24.4-5.17-14-6.75-25.54-17.7-39.75-24.23-14.8-6.79-30.83-10-47-11.58-16.43-1.58-33.08-1.62-49.58-1.28-8.72.18-17.54.79-26,3-7.88,2.06-15.06,5.79-21.94,10.06s-13.41,8.85-20.67,12.29c-7.83,3.71-16.36,5.31-24.93,6.09-8.89.81-17.82,1-26.71,1.89q-13.67,1.31-27.2,3.74c-9,1.62-17.89,3.58-26.69,6-6.3,1.72-13.09,4.07-17.62,9a21,21,0,0,0-4.73,9.58,22,22,0,0,1-1.75,5.44,32.11,32.11,0,0,1-4,5,24,24,0,0,0-5.46,17.81,29.77,29.77,0,0,0,7.85,17.54c4.92,5.19,11.87,8.26,18.87,9.28a44.28,44.28,0,0,0,21.28-2.25c3-1.09,1.7-5.92-1.33-4.82Z"/><path class="cls-1" d="M771.5,605.59a26.91,26.91,0,0,0,8.67-21c-.25-4.44-1.76-8.82.92-12.82,2.2-3.28,5.49-6.09,8.5-8.61a73,73,0,0,1,42.95-16.76c15.31-.72,32.1,4.92,46.5-2.47,7.29-3.73,11.48-10.71,16.89-16.52a41.78,41.78,0,0,1,18.8-11.29c14.95-4.55,31.31-3.93,46.78-4.06,17.31-.15,34.79.32,51.77,3.93a116,116,0,0,1,24.73,8c8.32,3.86,16.06,8.46,25.23,10.05,16.63,2.87,33.53-1.47,50.14,1.31,6.7,1.12,13.43,3.24,18.92,7.35,6,4.52,9.28,11.17,10.5,18.52,1.44,8.72.68,17.88.57,26.68l-.36,29.59-.17,14.24,3.76-2.16c-12.68-5.63-27-11.68-41-7.44-12.07,3.64-20.59,13.78-32.18,18.39-12.67,5-27.09,4.91-40.51,4.59-6.61-.16-13.47-.85-19.29-4.25-5.3-3.09-9.4-7.86-14.61-11.09-5.92-3.68-12.7-4.29-19.51-4-7.76.34-15.52.94-23.28,1.42l-46.53,2.88c-7.85.49-15.7.88-23.54,1.47a22.56,22.56,0,0,0-9.6,2.47c-2.85,1.59-5.23,3.88-7.81,5.86a57.81,57.81,0,0,1-34.13,11.74c-11.56.18-25.36-2.81-33.23-12-4-4.71-4.55-11.42-9.59-15.39-4.52-3.55-10.86-4.2-15-8.26-1.63-1.62-3.4-4.19-2.32-6.57,1.32-2.9-3-5.45-4.32-2.52-2.69,5.9,1,11.67,6,14.95,4.69,3.1,11.58,3.7,14.77,8.79,1.74,2.76,2.53,6,4.2,8.81a26.59,26.59,0,0,0,5.74,6.72,43.76,43.76,0,0,0,16.61,8.3,62.86,62.86,0,0,0,37.29-1.48,60.76,60.76,0,0,0,16.49-8.8c2.58-2,4.95-4.28,7.8-5.87,3.27-1.82,7.09-1.79,10.73-2L937,633.45l24-1.49c7.57-.47,15.24-1.35,22.82-1.19a24.58,24.58,0,0,1,10.26,2.09,38.69,38.69,0,0,1,7.69,5.33c5,4.21,9.87,8.16,16.26,10,6.67,2,13.76,2,20.65,2a160.58,160.58,0,0,0,20.8-1.07,61.31,61.31,0,0,0,19.65-5.73c5.7-2.88,10.7-6.89,16-10.42s11.06-6.59,17.56-7.11c7.21-.57,14.31,1.3,21,3.78,3.5,1.29,6.92,2.78,10.33,4.29a2.53,2.53,0,0,0,3.76-2.16c.24-19.7.77-39.43.69-59.14,0-8.44-.74-17.28-5.06-24.74a33.22,33.22,0,0,0-15.59-13.44c-15.07-6.64-31.26-4.62-47.22-4.3-9.32.19-18.66-.46-27.32-4.19-4.26-1.84-8.31-4.14-12.51-6.1a114.55,114.55,0,0,0-12.25-4.9c-16.81-5.61-34.68-7.36-52.31-7.79-8.93-.22-17.86-.08-26.8.09a205.72,205.72,0,0,0-23.67,1.45,66.54,66.54,0,0,0-21.86,6.42,43,43,0,0,0-9.24,6.46,86.63,86.63,0,0,0-8,9c-2.54,3.07-5.23,6.08-8.68,8.16a27.87,27.87,0,0,1-10.79,3.58c-8.09,1.07-16.34-.19-24.41-.74a79.74,79.74,0,0,0-46.45,10.68c-6.81,4-13.58,9.21-18.51,15.46-2.93,3.71-3.75,7.66-3.22,12.32.48,4.24.82,8.13-.48,12.28a22,22,0,0,1-6.23,9.68c-2.38,2.18,1.17,5.7,3.54,3.53Z"/><path class="cls-1" d="M1262.34,579.11c-1.43-11.31,5.08-22,14.12-28.34,10.69-7.56,24.29-9.15,37-9.1,6.77,0,13.59.91,20.35.36a30.88,30.88,0,0,0,9.85-2.28,38.25,38.25,0,0,0,8.39-5.31c4.76-3.73,9.43-7.45,14.53-10.7a132.64,132.64,0,0,1,15.53-8.48,138.32,138.32,0,0,1,68.74-12.13,129.79,129.79,0,0,1,34.32,7.48,74.82,74.82,0,0,1,16.69,8.15,37.63,37.63,0,0,1,6.88,6c2,2.28,3.72,4.81,5.58,7.21,3.84,4.94,8.41,8.55,14.61,10,6,1.36,12.27.95,18.26,2.35,10.84,2.52,18.81,11.63,23,21.55,5.39,12.71,5.19,27.17,5,40.71,0,2.63-.27,5.2-2.58,6.83a11.35,11.35,0,0,1-7,1.67c-3.44-.13-6.78-1.22-10.18-1.73a27.8,27.8,0,0,0-9.88.18c-6.07,1.22-11.59,4.37-17,7.25a64.65,64.65,0,0,1-18.32,7,53.73,53.73,0,0,1-19.3.22c-6.85-1.19-13.21-3.88-19.6-6.52a80.22,80.22,0,0,0-19.7-5.8,125,125,0,0,0-21.45-.72c-14.5.51-29,1.15-43.46,2.49a249.89,249.89,0,0,0-42.88,7.3c-11.55,3.15-24.37,8-36.47,5.23a24.94,24.94,0,0,1-8-3.34c-2.55-1.64-4.73-3.76-7.11-5.62a24.78,24.78,0,0,0-8.16-4.52,40.46,40.46,0,0,0-9-1.27c-5.38-.32-11.29-.48-15.11-4.85-3-3.4-3.61-8.26-3.55-12.61a58.81,58.81,0,0,1,2.36-14.54c.84-3.11-4-4.43-4.83-1.33-2.57,9.47-4.93,22.06,1.37,30.62,3.59,4.88,9,6.79,14.86,7.38,3.2.32,6.45.26,9.63.76a18.83,18.83,0,0,1,8.22,3.37c2.56,1.83,4.83,4,7.37,5.91a28.72,28.72,0,0,0,8.49,4.27c6.08,1.91,12.55,1.72,18.79.83a152.36,152.36,0,0,0,19.16-4.54c7.12-2,14.29-3.7,21.57-5,14.69-2.6,29.59-3.76,44.47-4.55,7.54-.4,15.08-.75,22.62-1s14.88-.33,22.2.91c7,1.2,13.48,3.85,20,6.55s13.21,5,20.35,5.91a59.4,59.4,0,0,0,20.71-1.19c6.59-1.55,12.57-4.46,18.5-7.64,5.43-2.92,11.22-6.16,17.51-6.49,6.81-.36,13.21,3,20,1.78a13.36,13.36,0,0,0,7.22-3.63c2.3-2.39,3-5.53,3.09-8.75a188.26,188.26,0,0,0-.48-21.64c-1.14-13.06-4.81-26.07-13.93-35.87a36.07,36.07,0,0,0-14.07-9.44c-6-2.16-12.45-1.88-18.69-2.77a22.54,22.54,0,0,1-8.72-2.82,24.7,24.7,0,0,1-6.36-6.25c-1.88-2.45-3.62-5-5.67-7.31a42,42,0,0,0-7.45-6.51,77.38,77.38,0,0,0-17.38-8.62,129.51,129.51,0,0,0-17.69-5.21,142.73,142.73,0,0,0-72.83,3.32,137.86,137.86,0,0,0-33.07,15.32c-5.39,3.44-10.29,7.43-15.33,11.34a28.72,28.72,0,0,1-8.39,4.88,32.35,32.35,0,0,1-10.35,1.4c-7,0-13.9-.67-20.87-.45a81.19,81.19,0,0,0-20.68,3c-11.81,3.5-22.66,11.16-28,22.52a30.71,30.71,0,0,0-2.94,16.86,2.58,2.58,0,0,0,2.5,2.5,2.51,2.51,0,0,0,2.5-2.5Z"/><path class="cls-1" d="M383.3,837.25q-.87-13.15-1-26.33c0-4.33,0-8.66.08-13,.08-2.9.22-6.11,1.67-8.7,1.72-3.07,5-3.51,8.16-4.27a29.16,29.16,0,0,0,8.4-3.48c5.05-3.1,9.14-7.48,13-11.94s7.67-9.32,12.2-13.3a40,40,0,0,1,17.85-8.71c7-1.57,14.2-1.73,21.32-1.52,8,.24,16,.9,24,1.42l51.73,3.38c12.87.83,28.58.91,38.21,10.89,4.71,4.88,7.14,11.46,9.82,17.55,2.76,6.26,6,12.08,11.09,16.78a66,66,0,0,0,17,11c6.83,3.23,13.9,6,20.93,8.79a194,194,0,0,0,23.7,8c6.47,1.64,13.08,2.54,19.63,3.79,10.49,2,23.19,5.16,27.71,16.1,2.53,6.15,1.56,13,.06,19.23-1.64,6.88-4,13.6-5.08,20.62a43.11,43.11,0,0,0-.38,11c.42,4.12,1.33,8.2,1.38,12.35a27,27,0,0,1-5.65,16.41,31,31,0,0,1-13.93,10.44c-6.48,2.36-12.69,1.84-19.21-.11a117.87,117.87,0,0,0-11.76-3.28A80.67,80.67,0,0,0,641.79,929c-8.31-.28-16.67.11-25,.33-32.67.86-65.93,2.76-97.11,13.38-14.06,4.8-28.66,11.67-43.9,9.58-6.08-.84-12.21-3.09-16.76-7.32-5.4-5-7.56-12.14-9.82-18.93-4.89-14.74-12.07-29.09-22-41.12a46.9,46.9,0,0,0-8-7.72,73.66,73.66,0,0,0-10.17-5.92A43.3,43.3,0,0,1,394,858.41a42.78,42.78,0,0,1-7.4-17.7c-.55-3.17-5.37-1.82-4.83,1.33a47.21,47.21,0,0,0,23.57,32.87c3.62,2,7.43,3.69,10.8,6.12a43.14,43.14,0,0,1,8,7.88,114.64,114.64,0,0,1,12.75,20.16,166.63,166.63,0,0,1,8.83,22.06c2.37,7,5.4,13.9,11.29,18.64,11.38,9.16,26.92,9.16,40.44,5.69,8.06-2.08,15.79-5.23,23.65-7.91A204.8,204.8,0,0,1,545.11,941c16.45-3.42,33.21-5,50-5.88,8.48-.44,17-.69,25.45-.9s17.13-.67,25.64,0a61.38,61.38,0,0,1,12.75,2.37,107.47,107.47,0,0,0,11.64,3.25,31.77,31.77,0,0,0,19.15-2.64c11.52-5.36,20.29-17.44,20.12-30.37-.06-4.15-1-8.23-1.38-12.35a39.81,39.81,0,0,1,.46-11.22c1.28-7.15,3.77-14,5.29-21.1,1.43-6.73,1.95-13.83-.72-20.32a26.52,26.52,0,0,0-11.92-13c-11.17-6.18-24.42-6.54-36.59-9.39a179,179,0,0,1-24.09-7.8c-7.21-2.82-14.47-5.66-21.48-9-6.26-3-12.39-6.46-17.29-11.43s-7.69-11.45-10.48-17.84-5.9-12.76-11.34-17.29-11.9-6.85-18.63-8.17c-7.33-1.44-14.82-1.77-22.25-2.25L512.56,744l-26.85-1.75c-8-.52-16-1.21-24-1.27-14.37-.12-28.93,2.28-39.94,12.21-8.86,8-14.92,19.83-25.92,25.26-3.06,1.51-6.44,1.77-9.61,3a12,12,0,0,0-7.06,6.54,26.71,26.71,0,0,0-1.77,10c-.12,4.32-.12,8.65-.08,13q.1,13.17,1,26.33c.22,3.19,5.22,3.22,5,0Z"/><path class="cls-1" d="M847.93,856.68a761.27,761.27,0,0,1-15-98.59q-1-12.3-1.69-24.62c-.43-8.24-1-16.57-.88-24.83a9.59,9.59,0,0,1,.65-4c.68-1.42,2.09-1.91,3.53-2.24a92.33,92.33,0,0,1,11.72-1.65c8.38-.84,16.8-1.12,25.22-1.26,33.78-.53,67.57-.6,101.36-.89l102.2-.89,25.24-.21,12.93-.11c2.76,0,6.83-.67,9.25,1.08a4.61,4.61,0,0,1,1.57,3.34c.26,1.94.23,4,.32,5.93l.59,12.58,1.2,25.47q2.37,50.81,4.76,101.6l2.38,50.95c.18,3.69.48,7.41.39,11.11a21,21,0,0,1-1.4,8,8.21,8.21,0,0,1-6.48,4.93c-3.75.67-7.8.31-11.6.35l-101.81.87-101.81.88-25.53.22-12.61.11c-3.66,0-7.58.43-11.2-.3A10.3,10.3,0,0,1,854,918.9a50.83,50.83,0,0,1-3.75-9.54,105.24,105.24,0,0,1-4.61-23.18,109.66,109.66,0,0,1,.51-22.62,2.47,2.47,0,0,0-2.46-2.46,2.53,2.53,0,0,0-2.46,2.46,110.56,110.56,0,0,0,4.62,48.19c2.17,6.59,4.73,14.07,11.78,16.76,3.43,1.3,7.24,1.21,10.86,1.17l13.22-.11,104.58-.9,105.19-.9,26.15-.23c3.75,0,7.82.26,11.43-1a12.66,12.66,0,0,0,7.15-6c3.23-6,2.47-13.28,2.16-19.82l-1.22-26.09q-2.46-52.32-4.91-104.66l-2.44-52.18-.62-13.19c-.17-3.56-.39-7.4-3.36-9.83-2.54-2.07-5.9-2.4-9.06-2.41-4.35,0-8.7.08-13,.12l-105,.9-105,.91c-17.21.15-34.55-.19-51.65,1.94-3.76.47-8,.65-11.48,2.25s-4.75,4.81-5.08,8.28c-.38,4,0,8.22.18,12.25q.21,6.32.53,12.63a770.62,770.62,0,0,0,12,102.16q2.26,12.12,4.9,24.16c.68,3.09,5.43,1.78,4.75-1.31Z"/><path class="cls-1" d="M1220.57,870.17l-2-24.56c-.57-7.2-1.57-14.83,1.61-21.6,5.59-11.9,18.73-18.78,30.63-22.81,13.22-4.47,27.18-6.12,40.94-8.07,6.93-1,13.87-2,20.71-3.56s13.39-3.86,18.29-9c4.57-4.81,7.47-10.88,11.75-15.91a61,61,0,0,1,14.75-12.42c11.9-7.25,25.61-10.84,39.36-12.39,7.89-.9,15.83-1.19,23.77-1.31,7.75-.11,15.52-.19,23.27,0a112.92,112.92,0,0,1,22.46,2.45,68.63,68.63,0,0,1,20.2,8.36,151.47,151.47,0,0,1,17.5,12.84c6.19,5.09,12.33,10.23,18.49,15.35s12.3,9.87,18.1,15.16c5.1,4.65,9,10.09,9.83,17.13,1.59,14.37-7.13,26.9-15.17,37.9-4.18,5.73-8,11.54-11.74,17.58-3.1,5.07-6.89,10-13.18,10.92s-12.58-1.7-18.5-3.26a47.84,47.84,0,0,0-10.07-1.75,32.55,32.55,0,0,0-10.55,1.46c-7.65,2.23-15.07,5.54-22.51,8.39l-23.16,8.88c-3.77,1.45-7.54,2.87-11.3,4.34a33,33,0,0,0-9.07,4.84c-5.1,4.13-6.54,10.87-10.13,16.11-5.79,8.45-15.29,13.87-25.19,15.93s-20.55.64-29.07-4.89c-2.86-1.84-5.39-4.13-8.08-6.19a36.08,36.08,0,0,0-9.21-5.19c-6.62-2.52-13.83-3-20.83-3.45a184.7,184.7,0,0,1-43.25-7.64,171.29,171.29,0,0,1-20.8-7.94c-3.38-1.56-6.72-3.22-10-5a48.75,48.75,0,0,1-8.58-5.36c-3.72-3.17-7.14-9.56-2.56-13.57,2.38-2.1-1.11-5.57-3.48-3.48-4.81,4.21-4.4,11.87-.89,16.76,4.2,5.84,11.32,9.13,17.57,12.27a178.47,178.47,0,0,0,43.18,15.16,180.84,180.84,0,0,0,23,3.32c7.28.57,14.71.6,21.81,2.54a30.66,30.66,0,0,1,9.64,4.45c3,2.09,5.71,4.61,8.71,6.73A39.59,39.59,0,0,0,1351.7,936a48.36,48.36,0,0,0,32.21-4.8,42.93,42.93,0,0,0,12.56-10,39.08,39.08,0,0,0,4.66-6.74c1.63-3,2.77-6.35,4.78-9.17s5.1-4.46,8.21-5.76c3.74-1.56,7.56-2.92,11.34-4.37l24.1-9.24,12.21-4.69c3.69-1.41,7.37-2.93,11.19-4a27.32,27.32,0,0,1,10.75-1,67.53,67.53,0,0,1,9.8,2.26c6.25,1.76,12.93,3.73,19.44,2.11s11-6.89,14.4-12.45c1.86-3,3.61-6.07,5.59-9,2.12-3.14,4.37-6.19,6.6-9.24,4.38-6,8.79-12.13,11.76-19,2.79-6.44,4.56-13.56,4-20.62a30.32,30.32,0,0,0-9.06-19c-5.59-5.7-12.17-10.54-18.31-15.63q-9.59-8-19.17-15.92c-11.63-9.61-23.79-18.91-38.58-22.92-15.25-4.14-31.47-3.49-47.12-3.33-28.87.28-61.48,3.3-82.36,25.82-4.65,5-7.72,11.11-12.09,16.29-4.83,5.72-11.36,7.86-18.47,9.38-14.28,3.06-28.88,4.22-43.21,7-13.64,2.61-27.6,6.82-38.79,15.35-5.33,4.07-10,9.14-12.65,15.37-3.11,7.33-2.36,15.13-1.74,22.86l2,24.56c.25,3.14,5.17,3.17,4.92,0Z"/></g></svg>