<?xml version="1.0" encoding="utf-8"?>
<!-- Generator: Adobe Illustrator 21.0.2, SVG Export Plug-In . SVG Version: 6.00 Build 0)  -->
<svg version="1.1" id="Layer_1" xmlns="http://www.w3.org/2000/svg" xmlns:xlink="http://www.w3.org/1999/xlink" x="0px" y="0px"
	 viewBox="0 0 1920 1080" style="enable-background:new 0 0 1920 1080;" xml:space="preserve">
<style type="text/css">
	.st0{fill:#606060;}
</style>
<g>
	<g>
		<g>
			<path class="st0" d="M1153.1,578.4c-2.7-10.8-7.6-20.9-11.7-31.2c-3.7-9.5-11-15.7-19.3-20.9c-3.5-2.2-6.9-1.5-7.9,1.9
				c-1.5,4.9-3,10.6-4.5,15.4c-1.4,4.4-5,9.6-8.5,13.8c0.9,5.5-13-18.3-15.7-24.5c-2.3-5.3-3.6-10.8-5.2-16.2
				c-1.6-5.9-2.9-11.8-6.2-17.1c-0.7-1.1-1.4-3.3-3-0.8c-2.4,3.9-5.1,7.8-6.4,12.2c-3.2,10.8-6.9,21.5-11.9,31.7
				c-2.9,5.8-5.4,11.9-9.1,17.2c-4.3,6.2-6.8,13-9,19.9c-1.2,3.9-3.8,6-7,7.3c-3.6,1.4-25.2-66.1-26.9-74.6c-0.6-3.1-2.1-5.5-4-8.3
				c-0.4,0.7-0.6,1.2-0.8,1.6c-6.7,12.2-12.9,24.6-20.6,36.3c-6.8,10.4-13.7,20.8-18.2,32.5c-1.1,3-2.6,5.8-4.4,8.5
				c-1.3,2-3,4.5-5.9,4c-2.7-0.4-3.3-3-3.6-5.2c-1.2-7.9-4.8-14.9-8-22c-4.5-10-8.3-20.3-13-30.2c-3.3-7.1-5.5-14.7-9.7-21.4
				c-1.6-2.5-2.5-2.8-4.9-0.4c-5.5,5.5-7.9,12.6-10.6,19.5c-2.4,6.2-5.1,12.2-6.9,18.7c-1.8,6.3-4.4,12.3-5.2,18.9
				c-0.1,1-0.7,2-1.1,2.9c-1.1,2.9-2.5,5.8-3.1,8.8c-1.8,9.1-3.2,18.3-4.6,27.3c-0.1,0.5-0.2,1-0.2,1.4c0.9-0.3,1.8-0.5,2.8-0.4
				c2.5,0.3,5-0.1,7.4-0.9c1.6-0.5,3.1-0.7,4.7,0c0.8,0.3,1.7,0.5,2.6,0.8c3,0.7,5.9,0.5,8.9-0.4c0.9-0.3,1.7-0.4,2.6-0.5
				c0.3-0.1,0.7,0,0.9-0.1c2.9-1.9,6.2-1,9.3-1.6c1.6-0.3,3.3-0.7,5-0.1c0.5,0.2,1.2,0,1.8-0.1c2.7-0.6,5.5-0.8,8.2-1.8
				c0.8-0.3,1.6-0.3,2.2-0.1c1-4.5,8-2.9,7.2,1.7c-1.4,7.8-1.4,15.7-1.3,23.6c0,2.3-2,4.4-4.5,3.8c-8.6-2.2-17.6-2-26.4-2.5
				c-5.9-0.3-11.8-0.7-17.7-1c-2,14.6,0.6,29.3-0.4,44c-0.2,2.5-0.5,5-0.9,7.4c1,0.8,1.6,1.9,1.4,3.5c-1.2,8.8-0.8,18.2-0.3,27.4
				c7.5,0.2,15,0.4,22.4,0.6c3.3-0.8,6.7-1.2,10-0.8c0-3.4,0.4-6.8,1-10.1c-1.8,0.1-3.5,0.2-5.3,0.3c-0.6,0.2-1.1,0.3-1.7,0.5
				c-1,0.3-2.1,0.2-3-0.3c-3.1,0.1-7.7,0.8-10.3-1.1c-3.1-2.3-2.5-7.1-2.7-10.5c-0.3-5-0.6-9.9-1-14.9c-0.1-2,1.5-3.8,3.5-3.9
				c4.9-0.2,9.8-0.2,14.7,0c5.2-0.3,10.4-0.6,15.6-0.9c2.1-0.1,3.6,1.5,3.9,3.5c0.3,2,0.5,4,0.8,6.1c0.7,0.7,1.2,1.5,1.3,2.6
				c0.1,1.4,0.1,2.8,0.1,4.2c-0.1,1-0.1,2.1-0.1,3.1c0.5,4.2,0.9,8.3,1.2,12.5c0.5,6.8,1.4,13.8,0.2,20.6c2.4,0.5,4.3,3.6,2.3,6.1
				c-0.3,0.4-0.6,0.8-0.9,1.1c0.4,2-0.6,4.4-3.2,4.5c-18.4,0.8-36.8,1.6-55.1,2.4c-1.4,0.1-2.4-0.5-3.1-1.4
				c-1.2-0.3-2.3-0.7-3.4-1.3c-1.2-0.5-2.3-1.2-3.4-1.8c-0.2-0.1-0.3-0.2-0.5-0.3c5.6,11.8,15.2,19.2,28.7,23
				c8.3,2.3,16.7,4,25.4,4.8c13.7,1.3,27.4,3,41.2,4.3c17.3,1.6,34.4,0.5,51.5-1.9c13.7-1.9,29.2,0.9,42.2-3.7
				c13.1-4.6,26.9-8.1,39.7-13.6c17-7.3,28.9-23.8,40.3-38.3c1.4-1.8,2.8-3.6,4.2-5.4c-0.8-3.1-1.6-6.2-2.3-9.3
				c-1.4-5.9-3.7-11.6-5.6-17.3c-0.2-0.6-0.5-1.1-0.8-1.7c-2.7-0.6-5.1,0.1-7.4,0.7c-2.1,0.6-4.1,0.6-6.1-0.2
				c-1.3-0.5-2.7-0.7-4.2-1c-0.3,0.7-0.6,1.2-0.7,1.7c-0.2,1.5-0.5,3-0.5,4.5c0,4.7-1.1,9.1-2.5,13.5c-0.8,2.6-1.3,5.2-2,7.8
				c-0.8,2.9-1.6,5.7-2.5,8.6c-1,3.5-2.3,6.8-2.9,10.4c-0.2,1.4-0.4,2.8-0.3,4.2c0.1,1.2-0.5,1.9-1.5,2.3c-2.1,0.7-4,1.4-6.4,0.5
				c-2-0.7-4.3-0.6-6.5-0.8c-2.9-0.2-5.8-0.2-8.7-0.4c-2.5-0.1-4.5-2.3-4.3-4.8c0.1-1.3,0.1-2.6,0-3.9c-0.2-1.8,0.5-3.4,1.2-4.9
				c1.2-2.6,2-5.4,3-8.1c0.2-0.6,0.5-1.4,0.4-2c-0.3-2.7,0.7-5.1,1.2-7.6c1.1-6.6,2.4-13.2,3.7-19.7c0.4-1.9,1-3.6,1.5-5.5
				c0.9-3.6,1.7-7.2,2.5-10.8c0.6-2.8,1.3-5.6,1.8-8.5c0.7-3.5,1.5-7,1.9-10.6c0.4-4.1,1.3-8.1,2-12.1c0.2-1.1,0.7-2.1,0.3-3.2
				c0.8-2.3,0.3-4.8,0.7-7.1c0.3-1.7,0.4-3.3,0.2-5.1c-0.2-1.3,0.5-2.5,1.8-2.7c2.8-0.5,5.3-1.8,7.9-2.6c0.9-0.3,1.7-0.5,2.6-0.5
				c2-0.1,4-0.4,5.9-0.8c0.5-0.1,1-0.2,1.5-0.1c1.4,0.2,2.8,0,4.2-0.2c0.6-0.4,1.4-0.7,2.3-0.7c0.2,0,0.5,0,0.7,0
				c0.9-0.3,1.7-0.6,2.5-1c2.1-1,4.4-0.6,5.9,0.9c1.9,0,3.8,0,5.6,0c1.4-0.5,2.8-1,4.2-1.4c2.5-0.7,5-0.6,7.5-0.8
				c0.7-0.7,1.6-1.1,2.8-1c0.1,0,0.2,0,0.4,0C1156,590.3,1154.6,584.4,1153.1,578.4z M1020.4,705.3c-0.6,1.6-1.2,3.2-1.9,4.7
				c-0.6,1.4-1,2.8-1.2,4.3c-0.3,2.1-1.4,3.9-2.7,5.6c-0.7,0.9-1.7,1.1-2.6,1.2c-2.8,0.3-5.6,0.6-8.3,1c-4.2,0.6-8.5,1.2-12.6,2.5
				c-0.9,0.3-2,0.6-2.9,0.4c-2.8-0.4-5.4,0.4-7.9,1.2c-1.6,0.5-3,0.6-4.7,0.2c-2.1-0.5-4.3-0.8-6.5-0.2c-1.2,0.3-2.4,0.2-3.5-0.2
				c-1.3-0.5-2.6-1-4-1.4c-2.9-0.7-4.7-2.9-6.5-5c-0.4-0.5-0.8-1.3-0.7-1.9c0.5-2.6-0.2-5-0.7-7.4c-0.6-3.6-0.8-7.1-1.1-10.7
				c-0.1-1.4-0.1-2.8-0.3-4.2c-0.5-3.4-0.5-6.8-0.5-10.2c0-1.2,0.3-2.4,0.5-3.6c0.1,0,0.1,0,0.2,0c0-1.9,0-3.8,0-5.7c0-4,0.1-8,0-12
				c-0.1-2.7-0.2-5.4-0.6-8.1c-0.4-2.9-1-5.7-1.5-8.5c-0.2-1.4-0.4-2.8-0.5-4.1c-0.3-3.2-0.7-6.3-0.9-9.5c-0.2-3.5-0.3-7-0.4-10.5
				c-0.1-1.8,0.4-3.6,1.1-5.3c0.8-2,1.4-4.1,2.6-6c0.7-1.1,1.6-1.7,3-1.5c1.2,0.2,2.4,0.3,3.6,0.4c1.2,0.1,2.4,0.1,3.5-0.6
				c0.9-0.5,1.9-0.5,2.9-0.4c4.1,0.2,8.2,0.4,12.3,0.4c1.6,0,3.2-0.6,4.8-0.5c3.4,0.2,6.7-0.9,10.1-0.8c0.8,0,1.8-0.3,2.6-0.7
				c1.5-0.7,3.1-0.8,4.6-0.2c1.1,0.4,2.2,1,3.3,1.4c2.6,1,4.2,3.1,5.3,5.5c0.9,1.9,1.5,3.9,1.9,6c0.3,1.9,0.7,3.7,1.1,5.6
				c0.3,1.7,0.7,3.3,2,4.6c0.6,0.6,0.7,1.4,0.6,2.2c-0.2,3.3,0.4,6.5,1.7,9.6c1.4,3.4,1.8,7,2.2,10.5c0.4,2.9,0.7,5.7,1.2,8.6
				c1.2,6.4,2.2,12.8,2.4,19.3c0.1,4.1,0.7,8.2,0.9,12.2C1022.3,697.7,1021.8,701.6,1020.4,705.3z M1080,614
				c-0.9,0.4-1.7,0.9-2.6,1.5c-0.7,0.5-1.4,0.7-2.3,0.5c-0.9-0.2-1.8-0.3-2.6-0.5c-2.5-0.6-4.9-0.7-7.4,0c-0.7,0.2-1.4,0.2-2.4,0.4
				c0.5,3,1,5.7,1.5,8.5c0.4,2.6,0.7,5.1,1.1,7.7c0,0.3,0,0.6,0,0.9c0.4,2.5,0.5,4.9,0.4,7.4c-0.3,3.7,0.1,7.4,0.7,11
				c0.3,2,0.4,4,0.1,6c-0.4,3,0.1,6,0.4,8.9c0.5,4.5,1.1,8.9,1.5,13.4c0.2,2.3-0.3,4.6,0.1,6.9c0.4,2.6,0.8,5.1,0.8,7.7
				c0,0.9,0.1,1.8-0.1,2.7c-0.2,1.6,0,3.2,0.4,4.7c0.2,1,0.4,2,0.8,2.9c0.8,1.8,0.9,3.6,0.3,5.5c-0.2,0.7-0.2,1.6-0.2,2.3
				c0.3,4.7-1.9,7.6-6.4,9.2c-5.3,1.8-10.7,2.2-16.2,2.3c-1.1,0-2.2-0.3-3.1-0.9c-0.9-0.6-1.4-1.3-1.4-2.5c0-3.7-0.5-7.4-0.2-11.1
				c0.1-1.2,0.1-2.4-0.2-3.6c-0.2-1.2-0.3-2.3,0.4-3.4c0.3-0.4,0.2-1.2,0.2-1.7c-0.1-1.5-0.2-3-0.3-4.5c-0.3-5.8-0.5-11.5-0.5-17.3
				c0-1.5,0-3,0.2-4.5c0.5-4,0.4-8,0.1-12c-0.3-3.8,0-7.6,0.2-11.4c0.2-2.9-0.2-5.8-0.3-8.7c-0.1-2.8-0.6-5.6-1.3-8.3
				c-1-4.1-1.5-8.2-1.9-12.4c-0.2-1.5-0.7-2.4-2.1-2.9c-1.5-0.6-2.9-0.9-4.6-0.7c-2.4,0.3-5-0.3-7.3-1.1c-1.6-0.6-2.7-2-3.7-3.4
				c-1.3-1.8-1.9-3.6-1.5-5.9c0.5-2.8,0.8-5.7,1.1-8.6c0.1-1.3,0.2-2.6,0.2-3.9c0-0.4,0.1-0.8,0.2-1.1c0.6-1.8,0.9-2.1,2.8-1.9
				c1.6,0.2,3.2,0.3,4.7,0.7c2.7,0.6,5.3,0.7,8,0.5c1.4-0.1,2.8-0.2,4.2,0c3.2,0.4,6.4,0.2,9.5-0.6c3.5-0.9,7.1-1.2,10.7-1.3
				c1.4,0,2.8-0.4,4.1-0.6c2.9-0.4,5.7-0.7,8.6-1.1c1.3-0.2,2.6,0.2,3.8,0.7c1.4,0.7,2.4,1.8,2.3,3.5c0,0.7,0,1.4-0.1,2.1
				c-0.6,3.8-0.4,7.6,0.7,11.3c0.3,1,0.4,2,0.5,2.9C1082.3,612.3,1081.6,613.2,1080,614z"/>
			<path class="st0" d="M998.6,684.5c0.1-12-2.6-23.8-8-34.5c0.1-1.8-0.9-3.1-2.1-3.9c-1-1.7-2-3.4-3.1-5c-3.1-4.5-7.4,6.6-7.7,7.4
				c-3.9,11.5-9,28.1-6.9,40.5c1.8,10.1,15.1,9.5,23,8.5C996.3,697.2,1001.2,685.5,998.6,684.5z"/>
			<path class="st0" d="M1117.4,649.5c1.1,6.1,5.9,10.7,12.3,10.6c7.1-0.2,9.7-5.8,9.2-12.2c-0.9-9.6-3.8-19.5-6.5-28.8
				c-1.5-5.2-9.7-3-8.2,2.3c0.1,0.2,0.1,0.4,0.2,0.6c-0.3,0.6-0.5,1.2-0.6,2C1123.3,632.8,1115.8,640.1,1117.4,649.5z"/>
		</g>
	</g>
</g>
<g>
	<path class="st0" d="M553,692.1c-22.3-16-30.7-46.9-35.4-72.6c-2.7-14.8-4.1-30.4-3.1-45.4c0.5-7.7,1.7-16.1,7.2-22.1
		c8.1-8.7,20.5-5.7,26.6,3.6c15.1,22.8-10.6,58.1-27,72.9c-1.5,1.4-8.9,6.4-9.3,7.5c3.8-9.3,12.1,2.3,14,4.5
		c2.8,3.2,5.7,6.1,9.3,8.4c9.6,6.4,21.3,8.7,32.4,10.8c3.2,0.6,4.6-4.3,1.4-4.9c-10.7-2.1-22-4.2-31.1-10.3
		c-7-4.7-11-14.2-19.3-16.8c-9.5-2.9-18.1,8-9.2,14.5c0.7,0.5,1.9,0.5,2.6,0c21.7-14.9,41.4-38.8,44.9-65.7
		c1.5-11.1-1-22.9-10.2-30.1c-7.4-5.8-17-6.7-24.8-1.2c-9.4,6.6-11.9,18.1-12.5,28.9c-1,16.2,0.6,32.7,3.6,48.6
		c5.1,26.7,14.3,57.2,37.4,73.8C553.1,698.4,555.6,694,553,692.1L553,692.1z"/>
	<path class="st0" d="M573.8,630.8c5.5-2.4,11.8-8.7,7.2-15c-3.9-5.4-11.5-2.4-14.2,2.5c-8.8,15.4,13.7,30,27,28.9
		c3.2-0.3,3.3-5.4,0-5.1c-6.5,0.6-15.8-3.5-20-8.4c-2.4-2.7-4-6.9-3.3-10.5c0.1-1.4,0.7-2.5,1.8-3.3c1.5-2.3,3-1.4,4.6,2.7
		c-0.3,1.7-4.2,3.3-5.5,3.9C568.2,627.8,570.8,632.2,573.8,630.8L573.8,630.8z"/>
	<path class="st0" d="M614.8,606.2c-7.7-0.1-12.4,4.9-14.5,12c-1.9,6.5-3.8,16.7,2.6,21.3c15.9,11.4,18.7-28.5,18.6-36
		c-1.6,0.4-3.2,0.9-4.8,1.3c4,8.4-3.7,25.5,11.7,25.7c12.6,0.2,15.7-13.7,16.8-23.6c0.3-2.9-4.4-3.5-5-0.7
		c-2.2,10.4,5,22.1,16.5,21.6c11.1-0.5,17.5-12.5,14.6-22.4c-1.6,0.7-3.1,1.3-4.7,2c3.2,4.8,6.5,9.6,9.7,14.4
		c1.8,2.7,6.3,0.2,4.4-2.6c-3.2-4.8-6.5-9.6-9.7-14.4c-1.6-2.3-5.5-0.9-4.7,2c1.7,5.9-0.3,11.6-5.8,14.4
		c-9.2,4.7-17.4-4.5-15.5-13.5c-1.7-0.2-3.3-0.5-5-0.7c-0.4,3.9-0.8,9.6-3.2,13.1c-8.2,12.2-13.3,2-14.1-5.6
		c-0.5-4.8,0.4-7.7-1.7-12.2c-1.1-2.4-4.8-1.1-4.8,1.3c0.1,7.7-0.6,15.4-2.9,22.9c-0.4,1.5-0.9,3-1.6,4.5c-1.1,5.3-3.8,4.3-8.2-3.1
		c-1.4-5.9,5.9-16.6,11.1-16.5C618.1,611.4,618.1,606.3,614.8,606.2L614.8,606.2z"/>
	<path class="st0" d="M677.9,581.1c-0.5,0-0.9,0-1.4,0c-3.3,0-3.3,5.1,0,5.1c0.5,0,0.9,0,1.4,0C681.2,586.2,681.2,581.1,677.9,581.1
		L677.9,581.1z"/>
	<path class="st0" d="M643.2,613.2c-0.6-15-1.2-30-1.8-45c-0.1-3.3-5.2-3.3-5.1,0c0.6,15,1.2,30,1.8,45
		C638.2,616.5,643.3,616.5,643.2,613.2L643.2,613.2z"/>
	<path class="st0" d="M685.2,606.7c4.6-7.5,6-5.5,4.3,6.1c-2.2,0.7-2.7,4.5,0,4.9c22.7,3.4,9.6,45.8-0.8,42.9
		c-3.2-0.9-4.5,4.1-1.4,4.9c13.8,3.8,18.6-17.1,19.8-27c1.4-11.5-3.9-23.9-16.3-25.8c0,1.6,0,3.3,0,4.9c7.3-2.4,12.6-12.4,5.8-18.5
		c-6.4-5.7-15.9-0.3-16.6,7.5C679.8,610,684.9,610,685.2,606.7L685.2,606.7z"/>
	<path class="st0" d="M720.2,590.2c-5.4-6.6-12.5,3.5-14.6,7.9c-2.5,5.4-6.6,18.5-0.2,22.9c5.7,3.9,14-2.3,17.3-6.7
		c4.6-6,5.9-13.9,3.1-20.9c-1.4,0.8-2.8,1.7-4.3,2.5c5.8,5,0.1,14.2,4.8,20.1c2.6,3.3,7.3,4.4,10.8,1.9c2.6-1.9,0.1-6.4-2.6-4.4
		c-6.4,4.6-5.2-12.4-5.5-14.1c-0.5-3-1.6-5.1-3.9-7.1c-1.7-1.5-5.3-0.1-4.3,2.5c2.9,7.1,0.6,15.5-5.8,19.9c-2.4,1.7-3.7,2.6-6.1,0.9
		c-2.4-1.8-1.7-4.2-1.3-7c0.2-1.2,5.9-18.3,8.8-14.7C718.7,596.4,722.3,592.7,720.2,590.2L720.2,590.2z"/>
	<path class="st0" d="M762.2,592.9c-14.6-8.4-35.6,19.1-22.5,27.3c8,5.1,16.1-4.2,20-10.1c7.1-10.8,9-24,10.8-36.6
		c-1.7-0.2-3.3-0.5-5-0.7c1.4,13.1-10.5,31-1.9,43.1c9,12.8,17.1-4.7,21.4-11.6c-1.6-0.7-3.1-1.3-4.7-2c-0.8,5.8-1.6,13,3.6,17.1
		c4.6,3.6,10.9,2.3,15-1.3c8.6-7.5,10.2-28.9-4.4-30.6c-10.2-1.1-19.5,13.4-7.8,18.3c6.1,2.6,11.6-1.1,15.9-5.2
		c10.1-10,19.4-17.6,33.3-21.7c3.1-0.9,1.8-5.9-1.4-4.9c-9.6,2.9-18.4,7.3-26.1,13.7c-2.1,1.8-4.1,3.7-6.1,5.7
		c-0.7,0.8-1.5,1.6-2.2,2.4c-2.8,1.6-3.2,2.5-1.2,2.5c2.2,0,2.7,1.6,1.5,4.7c-0.3,1.5-0.6,3-0.8,4.5c-0.7,1.5-1.3,3-2,4.5
		c-10.5,1.7-14.6-1.1-12.3-8.2c0.4-2.7-3-4.6-4.7-2c-1.3,2.1-5,10.7-7.1,11.4c-5.9-2-8.4-5.4-7.5-10.2c0.3-2.8,0.8-5.6,1.6-8.3
		c1.7-7.5,3.8-14.2,3-21.9c-0.3-2.6-4.6-3.8-5-0.7c-1.2,9-2.5,18.2-5.8,26.7c-1.2,3.1-5.1,12.7-8.7,13.9c-3.2-0.6-6.4-1.1-9.6-1.7
		c0.8-2,1.7-4,2.7-5.9c2.6-5,7-12.7,15.5-7.9C762.5,598.9,765.1,594.5,762.2,592.9L762.2,592.9z"/>
</g>
<path class="st0" d="M733.5,720c-3.6-9.7-9.3-23.1-7.5-33.6c-0.2-2.2,0.5-4.2,1.9-5.9c0.9-4,3.2-4.4,7-1.2c7.3,2.4,5.1,3.7,1.2,8.9
	c-3.9,5.1-9,8.8-14.6,11.8c1,1.3,2.1,2.7,3.1,4c10.9-12.1,33.9-10.4,37.8-29c-1.7-0.2-3.3-0.5-5-0.7c-1,12.6,15.4,22.3,23.8,10.6
	c7.4-10.3-1.4-24.3-14-20.8c-11.5,3.2-13.5,18.3,1.7,15.7c10.6-1.8,21-16.7,31.8-14.7c6.2,1.1,9.6,6.8,9.5,12.3
	c0,3.1-1.2,6.3-1.1,9.3c0.2,2.9,0.6,4.2,2.4,6.4c0.6,0.7,1.7,0.9,2.5,0.7c0.5-0.1,0.9-0.3,1.4-0.4c3.2-0.9,1.8-5.8-1.4-4.9
	c0.6-0.2,1.2-9.7,1.3-11.1c0.1-3.4-0.1-6.8-1.7-9.9c-2.3-4.6-6.6-7.1-11.7-7.5c-6.9-0.4-13.3,3-18.9,6.8c-1.9,1.3-3.7,2.6-5.6,3.8
	c-2.1,1.4-4.4,2.6-6.8,3.5c-0.7-1.7-1.3-3.4-2-5.1c2.3,0.2,4.5,0.4,6.8,0.6c1.1,3,2.1,6,3.2,8.9c-1.5,6.2-4.7,7.4-9.5,3.7
	c-5.3,0-7.5-2.6-6.6-7.9c0.2-2.9-4.4-3.5-5-0.7c-3.4,16.1-26.6,15.7-36.5,26.8c-1.9,2.2,0.5,5.4,3.1,4c8.4-4.4,18.7-12.1,21.1-22
	c1.6-6.7-1.9-13-9.3-13.1c-25.5-0.1-11.5,40.6-7.3,52C729.7,724.5,734.6,723.1,733.5,720L733.5,720z"/>
<g>
	<path class="st0" d="M681.5,677.9"/>
</g>
</svg>
