<?xml version="1.0" encoding="utf-8"?>
<!-- Generator: Adobe Illustrator 21.0.2, SVG Export Plug-In . SVG Version: 6.00 Build 0)  -->
<svg version="1.1" id="Capa_1" xmlns="http://www.w3.org/2000/svg" xmlns:xlink="http://www.w3.org/1999/xlink" x="0px" y="0px"
	 viewBox="0 0 228 242.8" style="enable-background:new 0 0 228 242.8;" xml:space="preserve">
<style type="text/css">
	.st0{fill:#FEC010;}
</style>
<g>
	<g>
		<g>
			<g>
				<path class="st0" d="M125.5,220.3c-0.3,0.1-0.7,0.2-1,0.5c-0.3,0.3-0.6,0.6-0.8,0.9c-0.5,0.8-0.6,1.5-0.4,2.2
					c0.1,0.3,0.4,0.6,0.8,1.1c0.1,0.1,0.3,0.3,0.6,0.6l0.6,0.7c0.5,0.6,0.8,1.1,1,1.6c0.2,0.7,0.1,1.4-0.3,2.1
					c-0.5,0.9-1.4,1.5-2.7,2c-0.2,0.1-0.4,0.1-0.5,0c-0.2-0.1-0.3-0.2-0.4-0.4c-0.1-0.2-0.1-0.3,0-0.5c0.1-0.2,0.2-0.3,0.4-0.4
					c0.5-0.2,0.9-0.4,1.2-0.6c0.3-0.2,0.6-0.5,0.8-0.8c0.2-0.4,0.3-0.7,0.2-1c-0.1-0.3-0.3-0.7-0.7-1.1l-0.6-0.7l-0.6-0.6
					c-0.5-0.6-0.9-1.1-1-1.5c-0.2-0.6-0.2-1.2-0.1-1.8c0.1-0.6,0.3-1.1,0.6-1.6c0.3-0.5,0.7-0.9,1.2-1.3c0.5-0.4,1-0.6,1.5-0.7
					c0.2,0,0.3,0,0.5,0.1c0.2,0.1,0.3,0.2,0.3,0.4c0,0.2,0,0.4-0.1,0.5C125.9,220.2,125.7,220.3,125.5,220.3z"/>
				<path class="st0" d="M130.6,220.2c-0.2,1.2-0.2,2.9-0.1,5.1c0,0.1,0,0.2,0,0.5c0,0.3,0,0.5,0,0.6c0,0.1,0,0.2,0,0.5
					c0,0.3,0,0.5,0,0.6c0,0.1,0,0.3,0,0.5c0,0.3,0,0.4,0,0.6c0,0.1,0,0.3,0,0.5c0,0.2,0,0.4,0,0.6c0,0.2,0,0.3,0,0.5
					c0,0.2,0,0.4,0,0.6c0,0.2-0.1,0.3-0.2,0.5c-0.1,0.1-0.3,0.2-0.5,0.2c-0.2,0-0.3-0.1-0.5-0.2c-0.1-0.1-0.2-0.3-0.2-0.5
					c0-0.2,0-0.3,0-0.5c0-0.2,0-0.3,0-0.5c0-0.1,0-0.3,0-0.5c0-0.2,0-0.4,0-0.5c0-0.1,0-0.3,0-0.5c0-0.3,0-0.4,0-0.5
					c0-0.1,0-0.3,0-0.5c0-0.3,0-0.5,0-0.5c0,0,0-0.2,0-0.6c0-0.3,0-0.5,0-0.5c-0.1-2.3-0.1-4.2,0.1-5.4c0-0.2,0.1-0.3,0.3-0.4
					c0.2-0.1,0.3-0.2,0.5-0.1c0.2,0,0.3,0.1,0.4,0.3C130.6,219.9,130.6,220,130.6,220.2z"/>
				<path class="st0" d="M134,219c0.1,0.3,0.3,0.6,0.4,1c0.1,0.3,0.2,0.7,0.4,1.2c0.1,0.5,0.2,0.8,0.3,0.9c0.1,0.4,0.4,1,0.7,1.8
					c0.3,0.7,0.5,1.2,0.6,1.5c-0.1-2.8-0.2-4.7-0.2-6c0-0.2,0.1-0.4,0.2-0.5c0.1-0.1,0.3-0.2,0.5-0.2c0.2,0,0.4,0.1,0.5,0.2
					c0.1,0.1,0.2,0.3,0.2,0.5c0.1,1.3,0.1,3.1,0.2,5.6c0.1,2.5,0.2,4.4,0.2,5.6c0,0.2-0.1,0.4-0.2,0.5c-0.1,0.1-0.3,0.2-0.5,0.2
					c-0.2,0-0.4-0.1-0.5-0.2c-0.2-0.1-0.3-0.2-0.4-0.4c-0.2-0.5-0.4-1.3-0.6-2.3c-0.3-1-0.4-1.7-0.6-2.2c-0.1-0.4-0.4-1-0.7-1.8
					l-0.5-1.3c0,2.7,0.1,5.3,0.2,7.8c0,0.2,0,0.4-0.2,0.5c-0.1,0.1-0.3,0.2-0.5,0.2c-0.2,0-0.4,0-0.5-0.2c-0.1-0.1-0.2-0.3-0.2-0.5
					c-0.2-3.6-0.3-7.5-0.2-11.6c0-0.1,0-0.2,0.1-0.3c0.1-0.2,0.2-0.3,0.3-0.4c0.2-0.1,0.3-0.1,0.5,0
					C133.8,218.7,133.9,218.8,134,219z"/>
				<path class="st0" d="M146.3,218.5c1.5,0,2.5-0.1,2.9-0.1c0.2,0,0.4,0.1,0.5,0.2c0.1,0.1,0.2,0.3,0.2,0.5c0,0.2-0.1,0.4-0.2,0.5
					c-0.1,0.1-0.3,0.2-0.5,0.2c-0.5,0-1.2,0-2.1,0.1c0,0.8,0,2.1-0.1,4c0.1,0,0.5,0,1-0.1c0.2,0,0.3,0,0.5,0.2
					c0.1,0.1,0.2,0.3,0.2,0.5c0,0.2,0,0.4-0.1,0.5c-0.1,0.1-0.3,0.2-0.5,0.3c-0.5,0.1-0.9,0.1-1.2,0.1c0,0.3,0,0.6,0,0.9
					c0,0.6,0,1.1,0,1.5c0,0.5,0,1,0,1.6c0,0.6-0.1,1.1-0.1,1.6c0,0.2-0.1,0.3-0.3,0.4c-0.2,0.1-0.3,0.2-0.5,0.1
					c-0.2,0-0.3-0.1-0.4-0.3c-0.1-0.2-0.2-0.3-0.1-0.5c0.1-0.4,0.1-0.9,0.1-1.4c0-0.5,0-1,0-1.5c0-0.4,0-1,0-1.6c0-0.6,0-1.6,0.1-3
					c0.1-1.4,0.1-2.6,0.1-3.3c0-0.1,0-0.1,0-0.2c-0.1-0.1-0.1-0.3-0.1-0.4c0-0.2,0.1-0.4,0.2-0.5
					C145.9,218.5,146.1,218.5,146.3,218.5z"/>
				<path class="st0" d="M154.3,219.7c-0.2,1.2-0.2,2.9-0.1,5.1c0,0.1,0,0.2,0,0.5c0,0.3,0,0.5,0,0.6c0,0.1,0,0.2,0,0.5
					c0,0.3,0,0.5,0,0.6c0,0.1,0,0.3,0,0.5c0,0.3,0,0.4,0,0.6c0,0.1,0,0.3,0,0.5c0,0.2,0,0.4,0,0.6c0,0.2,0,0.3,0,0.5
					c0,0.2,0,0.4,0,0.6c0,0.2-0.1,0.3-0.2,0.5c-0.1,0.1-0.3,0.2-0.5,0.2c-0.2,0-0.3-0.1-0.5-0.2c-0.1-0.1-0.2-0.3-0.2-0.5
					c0-0.2,0-0.3,0-0.5c0-0.2,0-0.3,0-0.5c0-0.1,0-0.3,0-0.5c0-0.2,0-0.4,0-0.5c0-0.1,0-0.3,0-0.5c0-0.3,0-0.4,0-0.5
					c0-0.1,0-0.3,0-0.5c0-0.3,0-0.5,0-0.5c0,0,0-0.2,0-0.6c0-0.3,0-0.5,0-0.5c-0.1-2.3-0.1-4.2,0.1-5.4c0-0.2,0.1-0.3,0.3-0.4
					c0.2-0.1,0.3-0.2,0.5-0.1c0.2,0,0.3,0.1,0.4,0.3C154.3,219.3,154.3,219.5,154.3,219.7z"/>
				<path class="st0" d="M157.8,218.8c-0.2,2.7-0.3,5.4-0.1,8c0,0.2,0.1,0.6,0.1,1.4c0,0.4,0.1,0.7,0.1,1l1.5,0
					c0.2,0,0.4,0.1,0.5,0.2c0.1,0.1,0.2,0.3,0.2,0.5c0,0.2-0.1,0.4-0.2,0.5c-0.1,0.1-0.3,0.2-0.5,0.2c-1,0-1.7,0-2.3,0
					c-0.2,0-0.3-0.1-0.5-0.2c-0.1-0.1-0.2-0.3-0.2-0.5c0-0.1,0-0.2,0.1-0.3c0-0.3,0-0.7-0.1-1.2c-0.1-0.8-0.1-1.2-0.2-1.4
					c-0.2-2.7-0.2-5.4,0.1-8.2c0-0.2,0.1-0.4,0.2-0.5c0.1-0.1,0.3-0.2,0.5-0.2c0.2,0,0.3,0.1,0.5,0.2
					C157.7,218.5,157.8,218.6,157.8,218.8z"/>
				<path class="st0" d="M162.2,218.5c0.5,0,1.2,0,2.1-0.1c1.2-0.1,1.9-0.2,2.2-0.2c0.2,0,0.4,0.1,0.5,0.2c0.1,0.1,0.2,0.3,0.2,0.5
					c0,0.2-0.1,0.4-0.2,0.5c-0.1,0.1-0.3,0.2-0.5,0.2c-0.4,0-1,0.1-1.8,0.2c0.1,1.1,0.1,2.7,0,4.8c-0.1,2.4,0,4.2,0.1,5.3
					c0,0.2,0,0.4-0.2,0.5c-0.1,0.1-0.3,0.2-0.5,0.2c-0.2,0-0.4,0-0.5-0.1c-0.1-0.1-0.2-0.3-0.3-0.4c-0.1-1.1-0.2-2.9-0.1-5.5
					c0.1-2.1,0.1-3.6,0-4.6c-0.4,0-0.8,0-1.2,0c-0.2,0-0.4-0.1-0.5-0.2c-0.1-0.1-0.2-0.3-0.2-0.5c0-0.2,0.1-0.4,0.2-0.5
					C161.8,218.6,162,218.5,162.2,218.5z"/>
				<path class="st0" d="M169.9,217.4c1.8,0.1,3.1,0.8,3.7,2c0.7,1.3,0.5,2.5-0.4,3.8c-0.3,0.4-0.6,0.7-1,1.1l2.1,5.4
					c0.1,0.2,0.1,0.4,0,0.5c-0.1,0.2-0.2,0.3-0.4,0.4c-0.2,0.1-0.3,0.1-0.5,0c-0.2-0.1-0.3-0.2-0.4-0.4l-1.9-5.1l-0.5,0.4l0,0.1
					c0,0.3,0,1,0.1,2.1c0.1,0.9,0.1,1.7,0,2.2c0,0.2-0.1,0.3-0.2,0.5c-0.1,0.1-0.3,0.2-0.5,0.2c-0.2,0-0.3-0.1-0.5-0.2
					c-0.1-0.1-0.2-0.3-0.2-0.5c0-0.5,0-1.2,0-2.1c-0.1-1.1-0.1-1.8-0.1-2.2c0-3.4,0-5.7,0-7.1c0-0.1,0-0.2,0.1-0.3
					c0-0.1,0-0.1,0-0.2c0-0.2,0.1-0.3,0.2-0.5C169.6,217.4,169.7,217.4,169.9,217.4z M170.5,218.8c0,1.3,0,2.9,0,5
					c0.7-0.5,1.2-1,1.6-1.5c0.6-0.8,0.7-1.6,0.3-2.4C172.1,219.4,171.5,219,170.5,218.8z"/>
				<path class="st0" d="M177.9,217.8c0.2-0.2,0.4-0.2,0.6-0.1c0,0,0.1,0,0.3,0.1c0.1,0,0.3,0.1,0.3,0.1l0.3,0.1
					c0.1,0.1,0.2,0.1,0.4,0.2c0.1,0.1,0.2,0.2,0.3,0.3c0.3,0.4,0.6,1,0.8,1.8c0.2,0.6,0.3,1.4,0.4,2.3c0.1,1.4,0.2,2.8,0.1,4.2
					c0,0.8-0.2,1.5-0.4,2.1c-0.4,1-1,1.5-1.8,1.6c-0.6,0.1-1.2,0-1.8-0.4c-0.6-0.4-1-0.8-1.3-1.4c-0.3-0.5-0.4-1.2-0.5-2.1
					c-0.1-0.9-0.1-1.9-0.1-3c0-1.1,0.1-2,0.3-2.9c0.2-1,0.5-1.7,0.8-2.2c0.3-0.4,0.5-0.6,0.8-0.7
					C177.6,217.9,177.8,217.9,177.9,217.8z M178.6,219.1l-0.3,0.1c-0.1,0-0.1,0-0.2,0c0,0,0,0-0.1,0c0,0,0,0-0.1,0l-0.3,0.3
					c-0.2,0.3-0.4,0.8-0.5,1.6c-0.2,0.8-0.2,1.7-0.3,2.7c0,1,0,1.9,0.1,2.7c0.1,0.8,0.2,1.4,0.4,1.7c0.2,0.3,0.4,0.6,0.7,0.8
					c0.3,0.2,0.6,0.3,0.9,0.2c0.3,0,0.6-0.3,0.7-0.8c0.2-0.4,0.3-1,0.3-1.6c0-1.4,0-2.7-0.1-4c-0.1-0.8-0.2-1.6-0.3-2.1
					c-0.1-0.6-0.3-1-0.5-1.2c-0.1-0.1-0.2-0.2-0.2-0.2C178.9,219.2,178.8,219.1,178.6,219.1z"/>
			</g>
		</g>
		<path class="st0" d="M124.4,238.8c18.2,0,36.4,0,54.6,0c2.1,0,2.1-2,0-2c-18.2,0-36.4,0-54.6,0
			C122.3,236.8,122.3,238.8,124.4,238.8L124.4,238.8z"/>
		<g>
			<path class="st0" d="M49.3,225.7l0-0.2c0-0.1,0-0.2,0-0.3c0-0.1,0-0.2,0-0.3c0-0.1,0-0.2-0.1-0.3l0,0c-0.2-0.1-0.4-0.1-0.8-0.1
				c-0.5,0.1-0.8,0.2-0.9,0.3c-0.2,0.2-0.3,0.6-0.3,1c0,0.2,0,0.4-0.1,0.7c0,0.1,0,0.2,0,0.4c0,0.2,0,0.3,0,0.4
				c-0.1,0.8,0,2,0.1,3.4c0.1,1.5,0.4,2.5,0.6,3.2c0.1,0.3,0.3,0.6,0.6,0.8c0.2,0.2,0.5,0.3,0.7,0.3c0.2,0,0.3,0,0.4-0.1
				c0.2-0.2,0.3-0.5,0.3-1c0-0.2,0.1-0.3,0.2-0.5c0.1-0.1,0.3-0.2,0.5-0.2c0.2,0,0.3,0.1,0.5,0.2c0.1,0.1,0.2,0.3,0.2,0.5
				c-0.1,0.8-0.3,1.4-0.7,1.8c-0.4,0.4-0.9,0.6-1.5,0.6c-0.5,0-1-0.2-1.4-0.6c-0.5-0.4-0.8-0.8-1-1.4c-0.2-0.6-0.4-1.3-0.6-2.3
				c-0.1-0.9-0.2-1.8-0.3-2.7c0-0.8,0-1.6,0-2.3c0-0.1,0-0.2,0-0.4c0-0.2,0-0.3,0-0.3c0-0.3,0-0.6,0-0.9c0.1-0.8,0.3-1.4,0.7-1.8
				c0.4-0.4,1-0.7,1.8-0.8c0.9-0.1,1.6,0.1,2,0.5c0.1,0.1,0.2,0.3,0.3,0.6c0,0.1,0.1,0.3,0.1,0.5c0,0,0,0.3,0.1,0.7
				c0,0.2,0,0.4-0.1,0.5c-0.1,0.1-0.3,0.2-0.5,0.3c-0.2,0-0.4,0-0.5-0.1C49.4,226,49.4,225.9,49.3,225.7z"/>
			<path class="st0" d="M53.3,222.8c1.9,0.1,3.1,0.7,3.8,1.9c0.7,1.2,0.6,2.5-0.3,3.8c-0.3,0.4-0.6,0.7-0.9,1.1l2.3,5.4
				c0.1,0.2,0.1,0.4,0,0.5c-0.1,0.2-0.2,0.3-0.4,0.4c-0.2,0.1-0.3,0.1-0.5,0c-0.2-0.1-0.3-0.2-0.4-0.4l-2.1-5l-0.5,0.4l0,0.1
				c0,0.3,0.1,1,0.2,2.1c0.1,0.9,0.1,1.7,0.1,2.2c0,0.2-0.1,0.3-0.2,0.5c-0.1,0.1-0.3,0.2-0.5,0.2c-0.2,0-0.3-0.1-0.5-0.2
				c-0.1-0.1-0.2-0.3-0.2-0.5c0-0.5,0-1.2-0.1-2.1c-0.1-1.1-0.2-1.8-0.2-2.2c-0.1-3.4-0.2-5.7-0.3-7.1c0-0.1,0-0.2,0.1-0.3
				c0-0.1,0-0.1,0-0.2c0-0.2,0.1-0.3,0.2-0.5C53,222.9,53.1,222.8,53.3,222.8z M54,224.2c0.1,1.3,0.2,2.9,0.2,5
				c0.7-0.5,1.2-1,1.5-1.5c0.6-0.8,0.7-1.6,0.2-2.4C55.6,224.7,54.9,224.4,54,224.2z"/>
			<path class="st0" d="M60,222.9c0.3,0,0.7,0,1.4-0.1c0.6,0,1.2-0.1,1.5-0.1c0.2,0,0.3,0.1,0.5,0.2c0.1,0.1,0.2,0.3,0.2,0.5
				c0,0.2-0.1,0.3-0.2,0.5c-0.1,0.1-0.3,0.2-0.5,0.2c-0.3,0-0.8,0-1.4,0.1l-0.7,0c0.2,1.2,0.3,2.5,0.4,4.1l0.9-0.1
				c0.2,0,0.4,0,0.5,0.2c0.1,0.1,0.2,0.3,0.2,0.5c0,0.2,0,0.4-0.2,0.5c-0.1,0.1-0.3,0.2-0.5,0.2l-0.9,0.1c0,0.4,0.1,1.1,0.1,2
				c0,0.9,0.1,1.6,0.1,2.1c0.1,0,0.3,0,0.5,0c0.2,0,0.3,0,0.4,0c0.6-0.1,1.2-0.1,1.6-0.1c0.2,0,0.3,0.1,0.5,0.2
				c0.1,0.1,0.2,0.3,0.2,0.5c0,0.2-0.1,0.4-0.2,0.5c-0.1,0.1-0.3,0.2-0.5,0.2c-0.3,0-0.8,0-1.5,0.1c-0.7,0.1-1.1,0.1-1.2,0.1
				c-0.1,0.1-0.2,0.2-0.4,0.2c-0.2,0-0.4,0-0.5-0.2c-0.1-0.1-0.2-0.3-0.2-0.5c0-0.7-0.1-1.6-0.2-2.9c-0.1-1.2-0.1-2.1-0.1-2.7
				c-0.1-2.3-0.3-4.1-0.5-5.4l0-0.1l0-0.1c0-0.2,0.1-0.3,0.2-0.5C59.7,222.9,59.8,222.9,60,222.9z"/>
			<path class="st0" d="M67.5,231c-0.1,2.5-0.1,3.9-0.1,4c0,0.2-0.1,0.3-0.2,0.5c-0.1,0.1-0.3,0.2-0.5,0.2c-0.2,0-0.3-0.1-0.5-0.2
				c-0.1-0.1-0.2-0.3-0.2-0.5c0-0.5,0.1-1.3,0.1-2.3l0.1-1.9c0-0.1,0-0.1-0.1-0.2c0-0.2,0-0.3,0.1-0.5c0.1-2.1,0.3-3.8,0.7-5.1
				c0.2-0.8,0.4-1.3,0.5-1.6c0.2-0.5,0.5-0.8,0.7-1c0.2-0.2,0.5-0.2,0.8-0.2c0.3,0,0.5,0.2,0.7,0.4c0.1,0.1,0.2,0.3,0.3,0.5
				c0,0.1,0.1,0.3,0.1,0.4c0,0.3,0.1,0.6,0.1,1c0,0.3,0,0.6,0.1,1c0,0.4,0,0.6,0.1,0.7c0.4,3.6,0.8,6.4,1.1,8.4c0,0.2,0,0.4-0.1,0.5
				c-0.1,0.1-0.3,0.2-0.4,0.3c-0.2,0-0.4,0-0.5-0.1c-0.1-0.1-0.2-0.3-0.3-0.4c-0.2-1.2-0.4-2.6-0.6-4.1
				C69.2,230.7,68.5,230.8,67.5,231z M67.5,229.6c0.8-0.2,1.4-0.2,1.7-0.3l-0.4-3c0-0.1,0-0.3-0.1-0.7c0-0.4-0.1-0.7-0.1-1
				c0-0.3-0.1-0.6-0.1-0.8l0,0.1c-0.1,0.2-0.2,0.7-0.4,1.4C67.9,226.6,67.7,228,67.5,229.6z"/>
			<path class="st0" d="M72.9,222.5c0.5,0,1.2-0.1,2.1-0.2c1.2-0.2,1.9-0.3,2.2-0.3c0.2,0,0.4,0,0.5,0.2c0.1,0.1,0.2,0.3,0.2,0.5
				c0,0.2,0,0.4-0.2,0.5c-0.1,0.1-0.3,0.2-0.5,0.2c-0.4,0-1,0.1-1.8,0.2c0.1,1.1,0.2,2.7,0.2,4.8c0,2.4,0.1,4.2,0.3,5.2
				c0,0.2,0,0.4-0.1,0.5s-0.3,0.2-0.4,0.3c-0.2,0-0.4,0-0.5-0.1c-0.1-0.1-0.2-0.3-0.3-0.4c-0.2-1.1-0.3-2.9-0.3-5.5
				c0-2.1-0.1-3.6-0.2-4.6c-0.4,0-0.8,0.1-1.2,0.1c-0.2,0-0.4-0.1-0.5-0.2c-0.1-0.1-0.2-0.3-0.2-0.5c0-0.2,0.1-0.4,0.2-0.5
				C72.5,222.6,72.7,222.5,72.9,222.5z"/>
			<path class="st0" d="M82.3,222.9c-0.1,1.2-0.1,2.9,0.1,5.1c0,0.1,0,0.2,0.1,0.5c0,0.3,0.1,0.5,0.1,0.6c0,0.1,0,0.2,0,0.5
				c0,0.3,0,0.5,0.1,0.6c0,0.1,0,0.3,0,0.5c0,0.2,0,0.4,0,0.6c0,0.1,0,0.3,0,0.5c0,0.2,0,0.4,0,0.6c0,0.2,0,0.3,0,0.5
				c0,0.2,0,0.4,0,0.6c0,0.2-0.1,0.3-0.2,0.5c-0.1,0.1-0.3,0.2-0.5,0.2c-0.2,0-0.3-0.1-0.5-0.2c-0.1-0.1-0.2-0.3-0.2-0.5
				c0-0.2,0-0.3,0-0.5c0-0.2,0-0.3,0-0.5c0-0.1,0-0.3,0-0.5c0-0.2,0-0.4,0-0.5c0-0.1,0-0.3,0-0.5c0-0.3,0-0.4,0-0.5
				c0-0.1,0-0.3-0.1-0.5c0-0.3,0-0.5,0-0.5c0,0,0-0.2-0.1-0.6c0-0.3-0.1-0.5-0.1-0.5c-0.2-2.3-0.3-4.1-0.1-5.4
				c0-0.2,0.1-0.3,0.3-0.5c0.1-0.1,0.3-0.2,0.5-0.1c0.2,0,0.3,0.1,0.5,0.3C82.3,222.6,82.3,222.7,82.3,222.9z"/>
			<path class="st0" d="M85,221.5c0.4,0.8,0.8,1.7,1.1,2.7c0.3,0.9,0.5,2,0.8,3.2c0,0.2,0.1,0.6,0.2,1.2c0.1,0.6,0.2,1,0.2,1.3
				c0-0.5,0.1-1.3,0.1-2.5c0.1-2.7,0.3-4.8,0.5-6.1c0-0.2,0.1-0.3,0.3-0.4c0.2-0.1,0.3-0.2,0.5-0.1c0.2,0,0.3,0.1,0.4,0.3
				c0.1,0.2,0.2,0.3,0.1,0.5c-0.2,1.2-0.4,3.2-0.5,5.9c-0.1,2.7-0.3,4.7-0.6,6.1c0,0.2-0.1,0.3-0.3,0.5c-0.2,0.1-0.3,0.1-0.5,0.1
				c-0.2,0-0.4-0.2-0.5-0.3c0-0.1-0.1-0.1-0.1-0.2c-0.1-0.4-0.3-0.7-0.4-1.1c-0.1-0.4-0.2-0.8-0.3-1.3c-0.1-0.5-0.2-0.8-0.2-1.1
				l-0.2-1.3c-0.1-0.6-0.2-0.9-0.2-1.1c-0.5-2.4-1-4.3-1.7-5.6c-0.1-0.2-0.1-0.3,0-0.5c0.1-0.2,0.2-0.3,0.3-0.4
				c0.2-0.1,0.3-0.1,0.5,0C84.7,221.3,84.9,221.4,85,221.5z"/>
			<path class="st0" d="M93.7,222.2c-0.1,1.2-0.1,2.9,0.1,5.1c0,0.1,0,0.2,0.1,0.5c0,0.3,0.1,0.5,0.1,0.6c0,0.1,0,0.2,0,0.5
				c0,0.3,0,0.5,0.1,0.6c0,0.1,0,0.3,0,0.5c0,0.2,0,0.4,0,0.6c0,0.1,0,0.3,0,0.5c0,0.2,0,0.4,0,0.6c0,0.2,0,0.3,0,0.5
				c0,0.2,0,0.4,0,0.6c0,0.2-0.1,0.3-0.2,0.5c-0.1,0.1-0.3,0.2-0.5,0.2c-0.2,0-0.3-0.1-0.5-0.2c-0.1-0.1-0.2-0.3-0.2-0.5
				c0-0.2,0-0.3,0-0.5c0-0.2,0-0.3,0-0.5c0-0.1,0-0.3,0-0.5c0-0.2,0-0.4,0-0.5c0-0.1,0-0.3,0-0.5c0-0.3,0-0.4,0-0.5
				c0-0.1,0-0.3-0.1-0.5c0-0.3,0-0.5,0-0.5c0,0,0-0.2-0.1-0.6c0-0.3-0.1-0.5-0.1-0.5c-0.2-2.3-0.3-4.1-0.1-5.4
				c0-0.2,0.1-0.3,0.3-0.5c0.1-0.1,0.3-0.2,0.5-0.1c0.2,0,0.3,0.1,0.5,0.3C93.7,221.9,93.7,222,93.7,222.2z"/>
			<path class="st0" d="M96.6,220.3c0.9,0.3,1.7,0.8,2.4,1.4c0.7,0.7,1.2,1.4,1.6,2.2c0.4,0.8,0.6,1.7,0.6,2.6
				c0.1,0.9,0,1.8-0.2,2.7c-0.2,0.9-0.6,1.7-1.2,2.4c-0.6,0.7-1.3,1.3-2.2,1.7c-0.2,0.1-0.4,0.1-0.5,0c-0.2-0.1-0.3-0.2-0.4-0.3
				l0-0.1c-0.3-0.1-0.5-0.3-0.5-0.6c-0.1-1.2-0.1-3.1-0.2-5.6c-0.1-2.5-0.1-4.4-0.2-5.6c0-0.1,0-0.2,0-0.3c0-0.1,0-0.1,0-0.2
				c0.1-0.2,0.2-0.3,0.3-0.4C96.2,220.2,96.4,220.2,96.6,220.3z M97.1,221.9c0.1,1.1,0.1,2.7,0.2,4.9c0.1,2.2,0.1,3.9,0.2,5.1
				c0.8-0.5,1.5-1.2,1.9-2.2c0.4-1,0.6-2,0.5-3.1c-0.1-1-0.4-2-0.8-2.8C98.5,223,97.9,222.4,97.1,221.9z"/>
			<path class="st0" d="M104.4,228.8c-0.1,2.5-0.1,3.9-0.1,4c0,0.2-0.1,0.3-0.2,0.5c-0.1,0.1-0.3,0.2-0.5,0.2
				c-0.2,0-0.3-0.1-0.5-0.2c-0.1-0.1-0.2-0.3-0.2-0.5c0-0.5,0.1-1.3,0.1-2.3l0.1-1.9c0-0.1,0-0.1-0.1-0.2c0-0.2,0-0.3,0.1-0.5
				c0.1-2.1,0.3-3.8,0.7-5.1c0.2-0.8,0.4-1.3,0.5-1.6c0.2-0.5,0.5-0.8,0.7-1c0.2-0.2,0.5-0.2,0.8-0.2c0.3,0,0.5,0.2,0.7,0.4
				c0.1,0.1,0.2,0.3,0.3,0.5c0,0.1,0.1,0.3,0.1,0.4c0,0.3,0.1,0.6,0.1,1c0,0.3,0,0.6,0.1,1c0,0.4,0,0.6,0.1,0.7
				c0.4,3.6,0.8,6.4,1.1,8.4c0,0.2,0,0.4-0.1,0.5c-0.1,0.1-0.3,0.2-0.4,0.3c-0.2,0-0.4,0-0.5-0.1c-0.1-0.1-0.2-0.3-0.3-0.4
				c-0.2-1.2-0.4-2.6-0.6-4.1C106,228.4,105.4,228.6,104.4,228.8z M104.4,227.4c0.8-0.2,1.4-0.2,1.7-0.3l-0.4-3c0-0.1,0-0.3-0.1-0.7
				c0-0.4-0.1-0.7-0.1-1c0-0.3-0.1-0.6-0.1-0.8l0,0.1c-0.1,0.2-0.2,0.7-0.4,1.4C104.7,224.3,104.5,225.7,104.4,227.4z"/>
			<path class="st0" d="M110.3,219.4c0.9,0.3,1.7,0.8,2.4,1.4c0.7,0.7,1.2,1.4,1.6,2.2c0.4,0.8,0.6,1.7,0.6,2.6
				c0.1,0.9,0,1.8-0.2,2.7c-0.2,0.9-0.6,1.7-1.2,2.4c-0.6,0.7-1.3,1.3-2.2,1.7c-0.2,0.1-0.4,0.1-0.5,0c-0.2-0.1-0.3-0.2-0.4-0.3
				l0-0.1c-0.3-0.1-0.5-0.3-0.5-0.6c-0.1-1.2-0.1-3.1-0.2-5.6c-0.1-2.5-0.1-4.4-0.2-5.6c0-0.1,0-0.2,0-0.3c0-0.1,0-0.1,0-0.2
				c0.1-0.2,0.2-0.3,0.3-0.4C110,219.4,110.2,219.4,110.3,219.4z M110.9,221.1c0.1,1.1,0.1,2.7,0.2,4.9c0.1,2.2,0.1,3.9,0.2,5.1
				c0.8-0.5,1.5-1.2,1.9-2.2c0.4-1,0.6-2,0.5-3.1c-0.1-1-0.4-2-0.8-2.8C112.3,222.2,111.7,221.5,110.9,221.1z"/>
		</g>
	</g>
	<g>
		<path class="st0" d="M221.3,62.4c-2.1-8.4-5.9-16.1-9-24.1c-2.9-7.3-8.5-12.1-14.9-16.2c-2.7-1.7-5.3-1.1-6.1,1.5
			c-1.2,3.8-2.3,8.2-3.5,11.9c-1.1,3.4-3.8,7.4-6.6,10.7c0.7,4.3-10-14.1-12.1-18.9c-1.8-4.1-2.8-8.3-4-12.5
			c-1.2-4.5-2.2-9.2-4.8-13.2c-0.5-0.8-1.1-2.6-2.3-0.6c-1.9,3-3.9,6-4.9,9.5c-2.5,8.4-5.3,16.6-9.2,24.5c-2.2,4.5-4.2,9.2-7,13.3
			c-3.3,4.8-5.3,10-6.9,15.4c-0.9,3-2.9,4.6-5.4,5.6c-2.8,1.1-19.4-51.1-20.8-57.6c-0.5-2.4-1.7-4.3-3.1-6.4
			c-0.3,0.6-0.5,0.9-0.6,1.3c-5.2,9.4-10,19-15.9,28.1c-5.3,8-10.6,16-14.1,25.1c-0.9,2.3-2,4.5-3.4,6.5c-1,1.6-2.3,3.4-4.6,3.1
			c-2.1-0.3-2.5-2.3-2.8-4c-0.9-6.1-3.7-11.5-6.2-17c-3.5-7.7-6.4-15.7-10-23.3c-2.6-5.5-4.2-11.3-7.5-16.5c-1.2-2-2-2.2-3.8-0.3
			c-4.3,4.3-6.1,9.8-8.2,15.1c-1.9,4.8-3.9,9.5-5.4,14.4c-1.4,4.8-3.4,9.5-4,14.6c-0.1,0.8-0.6,1.5-0.8,2.3
			c-0.8,2.3-1.9,4.5-2.4,6.8c-1.4,7-2.5,14.1-3.5,21.1c-0.1,0.4-0.1,0.7-0.2,1.1c0.7-0.2,1.4-0.4,2.2-0.3c2,0.2,3.9-0.1,5.7-0.7
			c1.2-0.4,2.4-0.5,3.6,0c0.6,0.3,1.3,0.4,2,0.6c2.3,0.6,4.6,0.3,6.8-0.3c0.7-0.2,1.3-0.3,2-0.4c0.2,0,0.5,0,0.7-0.1
			c2.2-1.5,4.8-0.8,7.2-1.2c1.3-0.2,2.6-0.5,3.9-0.1c0.4,0.1,0.9,0,1.4-0.1c2.1-0.4,4.3-0.6,6.3-1.4c0.6-0.3,1.2-0.2,1.7-0.1
			c0.7-3.5,6.2-2.3,5.6,1.3c-1.1,6.1-1.1,12.1-1,18.2c0,1.8-1.6,3.4-3.4,3c-6.6-1.7-13.6-1.6-20.4-2c-4.6-0.3-9.1-0.5-13.7-0.8
			c-1.5,11.3,0.5,22.7-0.3,34c-0.1,1.9-0.4,3.8-0.7,5.7c0.8,0.6,1.3,1.5,1.1,2.7c-1,6.8-0.6,14.1-0.2,21.2
			c5.8,0.2,11.6,0.3,17.3,0.5c2.6-0.6,5.2-1,7.7-0.7c0-2.6,0.3-5.2,0.8-7.8c-1.4,0.1-2.7,0.1-4.1,0.2c-0.4,0.1-0.9,0.2-1.3,0.4
			c-0.8,0.3-1.6,0.2-2.3-0.2c-2.4,0.1-5.9,0.6-8-0.9c-2.4-1.8-1.9-5.5-2.1-8.1c-0.2-3.8-0.5-7.7-0.7-11.5c-0.1-1.5,1.1-2.9,2.7-3
			c3.8-0.2,7.6-0.2,11.4,0c4-0.2,8-0.4,12.1-0.7c1.7-0.1,2.8,1.1,3,2.7c0.2,1.6,0.4,3.1,0.6,4.7c0.6,0.5,0.9,1.2,1,2
			c0,1.1,0.1,2.1,0.1,3.2c0,0.8-0.1,1.6-0.1,2.4c0.4,3.2,0.7,6.4,0.9,9.7c0.4,5.3,1.1,10.7,0.1,15.9c1.8,0.4,3.3,2.8,1.7,4.7
			c-0.2,0.3-0.5,0.6-0.7,0.9c0.3,1.6-0.5,3.4-2.5,3.5c-14.2,0.6-28.4,1.2-42.6,1.9c-1.1,0-1.9-0.4-2.4-1.1c-0.9-0.2-1.8-0.6-2.7-1
			c-0.9-0.4-1.8-1-2.7-1.4c-0.1-0.1-0.2-0.2-0.4-0.3c4.3,9.1,11.7,14.9,22.1,17.7c6.4,1.8,12.9,3.1,19.6,3.7
			c10.6,1,21.2,2.3,31.8,3.3c13.4,1.2,26.6,0.4,39.8-1.5c10.6-1.5,22.5,0.7,32.6-2.9c10.1-3.6,20.8-6.3,30.7-10.5
			c13.1-5.6,22.3-18.4,31.1-29.6c1.1-1.4,2.2-2.8,3.2-4.2c-0.6-2.4-1.2-4.8-1.8-7.2c-1.1-4.6-2.9-8.9-4.3-13.4
			c-0.1-0.4-0.4-0.8-0.6-1.3c-2.1-0.5-3.9,0.1-5.7,0.5c-1.6,0.4-3.1,0.4-4.7-0.2c-1-0.4-2.1-0.5-3.2-0.8c-0.2,0.5-0.5,0.9-0.5,1.3
			c-0.2,1.1-0.4,2.3-0.4,3.5c0,3.6-0.9,7-1.9,10.4c-0.6,2-1,4-1.6,6c-0.6,2.2-1.3,4.4-1.9,6.7c-0.7,2.7-1.8,5.3-2.3,8
			c-0.2,1.1-0.3,2.1-0.2,3.2c0.1,0.9-0.4,1.5-1.2,1.8c-1.6,0.5-3.1,1-4.9,0.4c-1.6-0.5-3.3-0.5-5-0.6c-2.2-0.1-4.5-0.2-6.7-0.3
			c-1.9-0.1-3.5-1.8-3.3-3.7c0.1-1,0.1-2,0-3c-0.1-1.4,0.4-2.6,0.9-3.8c0.9-2,1.6-4.2,2.3-6.3c0.2-0.5,0.4-1.1,0.3-1.6
			c-0.2-2.1,0.6-3.9,0.9-5.9c0.9-5.1,1.9-10.2,2.9-15.2c0.3-1.4,0.8-2.8,1.1-4.2c0.7-2.8,1.3-5.6,1.9-8.3c0.5-2.2,1-4.4,1.4-6.6
			c0.5-2.7,1.1-5.4,1.4-8.2c0.3-3.1,1-6.2,1.6-9.3c0.2-0.8,0.5-1.6,0.2-2.5c0.6-1.8,0.2-3.7,0.6-5.5c0.2-1.3,0.3-2.6,0.2-3.9
			c-0.1-1,0.4-1.9,1.4-2.1c2.2-0.4,4.1-1.4,6.1-2c0.7-0.2,1.4-0.4,2-0.4c1.6-0.1,3.1-0.3,4.6-0.6c0.4-0.1,0.8-0.2,1.1-0.1
			c1.1,0.2,2.2,0,3.3-0.2c0.5-0.3,1.1-0.5,1.8-0.5c0.2,0,0.4,0,0.6,0c0.7-0.2,1.3-0.4,2-0.7c1.6-0.8,3.4-0.4,4.6,0.7
			c1.5,0,2.9,0,4.4,0c1.1-0.4,2.2-0.8,3.3-1.1c2-0.5,3.9-0.4,5.8-0.6c0.5-0.5,1.3-0.8,2.1-0.8c0.1,0,0.2,0,0.3,0
			C223.5,71.7,222.4,67.1,221.3,62.4z M118.7,160.5c-0.5,1.2-1,2.4-1.5,3.6c-0.5,1.1-0.8,2.2-0.9,3.3c-0.2,1.6-1.1,3-2.1,4.3
			c-0.5,0.7-1.3,0.8-2,0.9c-2.1,0.3-4.3,0.5-6.4,0.8c-3.3,0.5-6.6,0.9-9.8,1.9c-0.7,0.2-1.5,0.4-2.3,0.3c-2.2-0.3-4.2,0.3-6.1,0.9
			c-1.2,0.4-2.3,0.5-3.6,0.2c-1.6-0.4-3.3-0.6-5-0.1c-0.9,0.2-1.8,0.2-2.7-0.2c-1-0.4-2-0.8-3.1-1c-2.3-0.6-3.7-2.2-5.1-3.9
			c-0.3-0.4-0.6-1-0.5-1.5c0.4-2-0.2-3.9-0.5-5.7c-0.5-2.7-0.6-5.5-0.8-8.3c-0.1-1.1-0.1-2.2-0.2-3.2c-0.4-2.6-0.4-5.2-0.4-7.8
			c0-0.9,0.2-1.8,0.4-2.7c0,0,0.1,0,0.1,0c0-1.5,0-2.9,0-4.4c0-3.1,0.1-6.2,0-9.3c0-2.1-0.2-4.2-0.4-6.2c-0.3-2.2-0.8-4.4-1.1-6.6
			c-0.2-1.1-0.3-2.1-0.4-3.2c-0.2-2.5-0.5-4.9-0.7-7.4c-0.2-2.7-0.2-5.4-0.3-8.1c0-1.4,0.3-2.7,0.8-4.1c0.6-1.6,1.1-3.2,2-4.7
			c0.6-0.9,1.2-1.3,2.3-1.2c0.9,0.1,1.8,0.2,2.8,0.3c0.9,0,1.8,0.1,2.7-0.4c0.7-0.4,1.4-0.4,2.2-0.3c3.2,0.2,6.3,0.3,9.5,0.3
			c1.2,0,2.5-0.5,3.7-0.4c2.6,0.2,5.2-0.7,7.8-0.6c0.7,0,1.4-0.2,2-0.5c1.2-0.6,2.4-0.6,3.6-0.1c0.9,0.3,1.7,0.8,2.5,1.1
			c2,0.8,3.2,2.4,4.1,4.2c0.7,1.5,1.2,3,1.5,4.6c0.3,1.4,0.6,2.9,0.8,4.3c0.2,1.3,0.5,2.6,1.6,3.5c0.5,0.5,0.5,1.1,0.5,1.7
			c-0.1,2.6,0.3,5.1,1.3,7.5c1.1,2.6,1.4,5.4,1.7,8.1c0.3,2.2,0.5,4.4,0.9,6.6c0.9,4.9,1.7,9.9,1.8,14.9c0.1,3.2,0.5,6.3,0.7,9.5
			C120.2,154.6,119.8,157.6,118.7,160.5z M164.7,90c-0.7,0.3-1.3,0.7-2,1.1c-0.5,0.4-1.1,0.5-1.7,0.4c-0.7-0.2-1.4-0.2-2-0.4
			c-1.9-0.5-3.8-0.5-5.7,0c-0.5,0.1-1.1,0.2-1.9,0.3c0.4,2.3,0.8,4.4,1.1,6.6c0.3,2,0.6,4,0.8,6c0,0.2,0,0.5,0,0.7
			c0.3,1.9,0.4,3.8,0.3,5.7c-0.2,2.8,0.1,5.7,0.5,8.5c0.2,1.5,0.3,3.1,0.1,4.6c-0.3,2.3,0.1,4.6,0.3,6.9c0.4,3.4,0.9,6.9,1.1,10.3
			c0.1,1.8-0.2,3.5,0,5.3c0.3,2,0.6,4,0.6,6c0,0.7,0.1,1.4,0,2.1c-0.2,1.3,0,2.5,0.3,3.7c0.2,0.7,0.3,1.5,0.6,2.2
			c0.6,1.4,0.7,2.8,0.2,4.3c-0.2,0.6-0.1,1.2-0.1,1.8c0.2,3.6-1.5,5.9-4.9,7.1c-4.1,1.4-8.3,1.7-12.5,1.8c-0.9,0-1.7-0.2-2.4-0.7
			c-0.7-0.5-1.1-1-1.1-1.9c0-2.9-0.4-5.7-0.1-8.6c0.1-0.9,0.1-1.9-0.1-2.8c-0.2-1-0.3-1.8,0.3-2.7c0.2-0.3,0.1-0.9,0.1-1.3
			c-0.1-1.2-0.2-2.3-0.2-3.5c-0.2-4.5-0.4-8.9-0.4-13.4c0-1.2,0-2.3,0.2-3.4c0.4-3.1,0.3-6.2,0.1-9.3c-0.2-2.9,0-5.9,0.1-8.8
			c0.1-2.2-0.1-4.5-0.2-6.7c-0.1-2.2-0.4-4.3-1-6.4c-0.8-3.1-1.1-6.4-1.5-9.6c-0.1-1.2-0.5-1.9-1.6-2.3c-1.2-0.4-2.2-0.7-3.6-0.6
			c-1.9,0.2-3.8-0.2-5.6-0.9c-1.2-0.5-2.1-1.5-2.9-2.6c-1-1.4-1.5-2.8-1.1-4.5c0.4-2.2,0.6-4.4,0.9-6.7c0.1-1,0.1-2,0.2-3
			c0-0.3,0.1-0.6,0.2-0.9c0.4-1.4,0.7-1.6,2.2-1.5c1.2,0.1,2.5,0.3,3.7,0.5c2.1,0.5,4.1,0.6,6.2,0.4c1.1-0.1,2.2-0.1,3.2,0
			c2.5,0.3,5,0.1,7.4-0.4c2.7-0.7,5.5-1,8.3-1c1.1,0,2.1-0.3,3.2-0.4c2.2-0.3,4.4-0.6,6.7-0.8c1-0.1,2,0.1,2.9,0.6
			c1.1,0.5,1.9,1.4,1.8,2.7c0,0.5,0,1.1-0.1,1.6c-0.5,2.9-0.3,5.8,0.5,8.7c0.2,0.7,0.3,1.5,0.4,2.3C166.5,88.6,166,89.4,164.7,90z"
			/>
		<path class="st0" d="M101.9,144.4c0.1-9.3-2-18.4-6.2-26.7c0.1-1.4-0.7-2.4-1.6-3c-0.8-1.3-1.6-2.6-2.4-3.9
			c-2.4-3.5-5.7,5.1-5.9,5.7c-3,8.9-7,21.7-5.3,31.3c1.4,7.8,11.7,7.4,17.7,6.6C100.1,154.2,103.9,145.2,101.9,144.4z"/>
		<path class="st0" d="M193.7,117.3c0.8,4.7,4.6,8.3,9.5,8.2c5.5-0.2,7.5-4.5,7.1-9.4c-0.7-7.5-3-15.1-5.1-22.2
			c-1.2-4-7.5-2.3-6.3,1.7c0,0.1,0.1,0.3,0.1,0.4c-0.2,0.4-0.4,0.9-0.4,1.5C198.2,104.5,192.4,110.1,193.7,117.3z"/>
	</g>
</g>
</svg>
